<svg width="50" height="50" viewBox="0 0 50 50" fill="none" xmlns="http://www.w3.org/2000/svg">
<rect width="50" height="50" rx="16" fill="#37474F" fill-opacity="0.05"/>
<path d="M23.7748 25.8629L11.6442 16.4311L10.6676 15.6712L11.6477 16.4347V34.9432H38.3523V16.4347L26.2145 25.8629C25.8656 26.1339 25.4364 26.2811 24.9947 26.2811C24.5529 26.2811 24.1237 26.1339 23.7748 25.8629Z" fill="#BBDEFB"/>
<path d="M37.9368 13.8778L39.3324 15.6712L38.3523 16.4347L39.3359 15.6712L37.9403 13.8778H37.9368Z" fill="#BBDEFB"/>
<path d="M39.7727 12.5H10.2272C9.59869 12.5 9.09088 13.0078 9.09088 13.6364V36.3636C9.09088 36.9922 9.59869 37.5 10.2272 37.5H39.7727C40.4013 37.5 40.9091 36.9922 40.9091 36.3636V13.6364C40.9091 13.0078 40.4013 12.5 39.7727 12.5ZM36.4169 15.0604L25 23.9347L13.5831 15.0604H36.4169ZM38.3522 16.4347V34.9432H11.6477V16.4347L10.6676 15.6712L11.6441 16.4311L23.7748 25.8629C24.1237 26.134 24.5529 26.2811 24.9946 26.2811C25.4364 26.2811 25.8656 26.134 26.2145 25.8629L38.3522 16.4347L39.3324 15.6712L37.9368 13.8778H37.9403L39.3359 15.6712L38.3522 16.4347Z" fill="#37474F"/>
</svg>
