<svg width="109" height="40" viewBox="0 0 109 40" fill="none" xmlns="http://www.w3.org/2000/svg">
<g clip-path="url(#clip0_16_1490)">
<path d="M29 20.0608C29 14.5383 24.5225 10.0608 19 10.0608C13.4775 10.0608 9 14.5383 9 20.0608C9 25.0525 12.6567 29.1892 17.4375 29.9392V22.9517H14.8983V20.06H17.4375V17.8583C17.4375 15.3525 18.9308 13.9675 21.215 13.9675C22.3083 13.9675 23.4533 14.1633 23.4533 14.1633V16.6242H22.1917C20.9492 16.6242 20.5617 17.395 20.5617 18.1858V20.0608H23.335L22.8917 22.9525H20.5617V29.94C25.3433 29.1892 29 25.0517 29 20.0608Z" fill="#1877F2"/>
</g>
<path d="M36.2514 26V15.8182H42.5653V17.1406H37.7876V20.2429H42.1129V21.5604H37.7876V26H36.2514ZM46.5302 26.169C46.0463 26.169 45.6088 26.0795 45.2177 25.9006C44.8266 25.7183 44.5167 25.4548 44.288 25.1101C44.0626 24.7654 43.9499 24.3428 43.9499 23.8423C43.9499 23.4115 44.0328 23.0568 44.1985 22.7784C44.3642 22.5 44.5879 22.2796 44.8697 22.1172C45.1514 21.9548 45.4663 21.8321 45.8143 21.7493C46.1623 21.6664 46.5169 21.6035 46.8782 21.5604C47.3356 21.5073 47.7068 21.4643 47.9918 21.4311C48.2769 21.3946 48.484 21.3366 48.6133 21.2571C48.7425 21.1776 48.8072 21.0483 48.8072 20.8693V20.8345C48.8072 20.4003 48.6845 20.0639 48.4393 19.8253C48.1973 19.5866 47.8361 19.4673 47.3555 19.4673C46.855 19.4673 46.4606 19.5784 46.1722 19.8004C45.8872 20.0192 45.69 20.2628 45.5806 20.5312L44.1836 20.2131C44.3493 19.7491 44.5913 19.3745 44.9094 19.0895C45.2309 18.8011 45.6005 18.5923 46.0181 18.4631C46.4357 18.3305 46.8749 18.2642 47.3356 18.2642C47.6405 18.2642 47.9637 18.3007 48.305 18.3736C48.6497 18.4432 48.9712 18.5724 49.2695 18.7614C49.5711 18.9503 49.8181 19.2204 50.0103 19.5717C50.2025 19.9197 50.2987 20.3722 50.2987 20.929V26H48.8469V24.956H48.7873C48.6912 25.1482 48.547 25.3371 48.3548 25.5227C48.1625 25.7083 47.9156 25.8625 47.614 25.9851C47.3124 26.1077 46.9511 26.169 46.5302 26.169ZM46.8533 24.9759C47.2643 24.9759 47.6156 24.8946 47.9073 24.7322C48.2023 24.5698 48.426 24.3577 48.5785 24.0959C48.7343 23.8307 48.8121 23.5473 48.8121 23.2457V22.2614C48.7591 22.3144 48.6564 22.3641 48.5039 22.4105C48.3548 22.4536 48.1841 22.4917 47.9918 22.5249C47.7996 22.5547 47.6123 22.5829 47.43 22.6094C47.2478 22.6326 47.0953 22.6525 46.9727 22.669C46.6843 22.7055 46.4208 22.7668 46.1822 22.853C45.9469 22.9392 45.7579 23.0634 45.6154 23.2259C45.4762 23.3849 45.4066 23.5971 45.4066 23.8622C45.4066 24.2301 45.5425 24.5085 45.8143 24.6974C46.0861 24.883 46.4324 24.9759 46.8533 24.9759ZM55.4952 26.1541C54.7561 26.1541 54.1197 25.9867 53.5861 25.652C53.0558 25.3139 52.6481 24.8482 52.3631 24.255C52.0781 23.6617 51.9355 22.9822 51.9355 22.2166C51.9355 21.4411 52.0814 20.7566 52.373 20.1634C52.6647 19.5668 53.0757 19.1011 53.606 18.7663C54.1363 18.4316 54.7611 18.2642 55.4803 18.2642C56.0603 18.2642 56.5774 18.3719 57.0314 18.5874C57.4855 18.7995 57.8517 19.0978 58.1301 19.4822C58.4119 19.8667 58.5792 20.3158 58.6323 20.8295H57.1855C57.106 20.4716 56.9237 20.1634 56.6387 19.9048C56.3569 19.6463 55.9791 19.517 55.5051 19.517C55.0909 19.517 54.7279 19.6264 54.4164 19.8452C54.1081 20.0606 53.8678 20.3688 53.6955 20.7699C53.5231 21.1676 53.437 21.6383 53.437 22.1818C53.437 22.7386 53.5215 23.2192 53.6905 23.6236C53.8596 24.0279 54.0982 24.3411 54.4064 24.5632C54.718 24.7853 55.0842 24.8963 55.5051 24.8963C55.7869 24.8963 56.0421 24.8449 56.2708 24.7422C56.5028 24.6361 56.6967 24.4853 56.8525 24.2898C57.0115 24.0942 57.1226 23.8589 57.1855 23.5838H58.6323C58.5792 24.0777 58.4185 24.5185 58.15 24.9062C57.8816 25.294 57.522 25.599 57.0712 25.821C56.6238 26.0431 56.0984 26.1541 55.4952 26.1541ZM63.5131 26.1541C62.7608 26.1541 62.1128 25.9934 61.5692 25.6719C61.029 25.3471 60.6114 24.8913 60.3164 24.3047C60.0247 23.7147 59.8789 23.0237 59.8789 22.2315C59.8789 21.4493 60.0247 20.7599 60.3164 20.1634C60.6114 19.5668 61.0224 19.1011 61.5494 18.7663C62.0797 18.4316 62.6995 18.2642 63.4087 18.2642C63.8396 18.2642 64.2572 18.3355 64.6616 18.478C65.0659 18.6205 65.4289 18.8442 65.7504 19.1491C66.0719 19.4541 66.3254 19.8501 66.511 20.3374C66.6966 20.8213 66.7894 21.4096 66.7894 22.1023V22.6293H60.7191V21.5156H65.3327C65.3327 21.1245 65.2532 20.7782 65.0941 20.4766C64.935 20.1716 64.7113 19.9313 64.4229 19.7557C64.1379 19.58 63.8031 19.4922 63.4187 19.4922C63.0011 19.4922 62.6365 19.5949 62.3249 19.8004C62.0167 20.0026 61.7781 20.2678 61.609 20.5959C61.4433 20.9207 61.3604 21.2737 61.3604 21.6548V22.5249C61.3604 23.0353 61.4499 23.4695 61.6289 23.8274C61.8112 24.1854 62.0647 24.4588 62.3896 24.6477C62.7144 24.8333 63.0939 24.9261 63.5281 24.9261C63.8098 24.9261 64.0666 24.8864 64.2987 24.8068C64.5307 24.724 64.7312 24.6013 64.9002 24.4389C65.0692 24.2765 65.1985 24.076 65.288 23.8374L66.695 24.0909C66.5823 24.5052 66.3801 24.8681 66.0884 25.1797C65.8001 25.4879 65.4371 25.7282 64.9996 25.9006C64.5655 26.0696 64.07 26.1541 63.5131 26.1541ZM68.5581 26V15.8182H70.0446V19.6016H70.1341C70.2202 19.4425 70.3445 19.2585 70.5069 19.0497C70.6693 18.8409 70.8947 18.6586 71.1831 18.5028C71.4714 18.3438 71.8526 18.2642 72.3265 18.2642C72.943 18.2642 73.4932 18.42 73.9771 18.7315C74.461 19.0431 74.8405 19.4922 75.1156 20.0788C75.394 20.6655 75.5332 21.3714 75.5332 22.1967C75.5332 23.022 75.3957 23.7296 75.1206 24.3196C74.8455 24.9062 74.4676 25.3587 73.987 25.6768C73.5065 25.9917 72.9579 26.1491 72.3414 26.1491C71.8774 26.1491 71.4979 26.0713 71.2029 25.9155C70.9113 25.7597 70.6826 25.5774 70.5169 25.3686C70.3511 25.1598 70.2235 24.9742 70.1341 24.8118H70.0098V26H68.5581ZM70.0147 22.1818C70.0147 22.7187 70.0926 23.1894 70.2484 23.5938C70.4042 23.9981 70.6296 24.3146 70.9245 24.5433C71.2195 24.7687 71.5808 24.8814 72.0083 24.8814C72.4525 24.8814 72.8237 24.7637 73.122 24.5284C73.4203 24.2898 73.6457 23.9666 73.7981 23.5589C73.9539 23.1513 74.0318 22.6922 74.0318 22.1818C74.0318 21.678 73.9556 21.2256 73.8031 20.8246C73.6539 20.4235 73.4286 20.107 73.127 19.875C72.8287 19.643 72.4558 19.527 72.0083 19.527C71.5775 19.527 71.2129 19.638 70.9146 19.8601C70.6196 20.0821 70.3959 20.392 70.2434 20.7898C70.091 21.1875 70.0147 21.6515 70.0147 22.1818ZM80.419 26.1541C79.7031 26.1541 79.0784 25.9901 78.5447 25.6619C78.0111 25.3338 77.5968 24.8748 77.3018 24.2848C77.0069 23.6948 76.8594 23.0054 76.8594 22.2166C76.8594 21.4245 77.0069 20.7318 77.3018 20.1385C77.5968 19.5452 78.0111 19.0845 78.5447 18.7564C79.0784 18.4283 79.7031 18.2642 80.419 18.2642C81.1349 18.2642 81.7597 18.4283 82.2933 18.7564C82.8269 19.0845 83.2412 19.5452 83.5362 20.1385C83.8312 20.7318 83.9787 21.4245 83.9787 22.2166C83.9787 23.0054 83.8312 23.6948 83.5362 24.2848C83.2412 24.8748 82.8269 25.3338 82.2933 25.6619C81.7597 25.9901 81.1349 26.1541 80.419 26.1541ZM80.424 24.9062C80.888 24.9062 81.2725 24.7836 81.5774 24.5384C81.8823 24.2931 82.1077 23.9666 82.2536 23.5589C82.4027 23.1513 82.4773 22.7022 82.4773 22.2116C82.4773 21.7244 82.4027 21.277 82.2536 20.8693C82.1077 20.4583 81.8823 20.1286 81.5774 19.88C81.2725 19.6314 80.888 19.5071 80.424 19.5071C79.9567 19.5071 79.5689 19.6314 79.2607 19.88C78.9557 20.1286 78.7287 20.4583 78.5795 20.8693C78.4337 21.277 78.3608 21.7244 78.3608 22.2116C78.3608 22.7022 78.4337 23.1513 78.5795 23.5589C78.7287 23.9666 78.9557 24.2931 79.2607 24.5384C79.5689 24.7836 79.9567 24.9062 80.424 24.9062ZM88.8546 26.1541C88.1387 26.1541 87.5139 25.9901 86.9803 25.6619C86.4467 25.3338 86.0324 24.8748 85.7374 24.2848C85.4424 23.6948 85.2949 23.0054 85.2949 22.2166C85.2949 21.4245 85.4424 20.7318 85.7374 20.1385C86.0324 19.5452 86.4467 19.0845 86.9803 18.7564C87.5139 18.4283 88.1387 18.2642 88.8546 18.2642C89.5705 18.2642 90.1953 18.4283 90.7289 18.7564C91.2625 19.0845 91.6768 19.5452 91.9718 20.1385C92.2667 20.7318 92.4142 21.4245 92.4142 22.2166C92.4142 23.0054 92.2667 23.6948 91.9718 24.2848C91.6768 24.8748 91.2625 25.3338 90.7289 25.6619C90.1953 25.9901 89.5705 26.1541 88.8546 26.1541ZM88.8596 24.9062C89.3236 24.9062 89.708 24.7836 90.013 24.5384C90.3179 24.2931 90.5433 23.9666 90.6891 23.5589C90.8382 23.1513 90.9128 22.7022 90.9128 22.2116C90.9128 21.7244 90.8382 21.277 90.6891 20.8693C90.5433 20.4583 90.3179 20.1286 90.013 19.88C89.708 19.6314 89.3236 19.5071 88.8596 19.5071C88.3922 19.5071 88.0044 19.6314 87.6962 19.88C87.3913 20.1286 87.1642 20.4583 87.0151 20.8693C86.8693 21.277 86.7963 21.7244 86.7963 22.2116C86.7963 22.7022 86.8693 23.1513 87.0151 23.5589C87.1642 23.9666 87.3913 24.2931 87.6962 24.5384C88.0044 24.7836 88.3922 24.9062 88.8596 24.9062ZM95.4407 23.4098L95.4308 21.5952H95.6893L98.7319 18.3636H100.512L97.0415 22.0426H96.8079L95.4407 23.4098ZM94.0735 26V15.8182H95.56V26H94.0735ZM98.896 26L96.1616 22.3707L97.1857 21.3317L100.721 26H98.896Z" fill="#3D3D3D"/>
<rect x="0.5" y="0.5" width="108" height="39" rx="19.5" stroke="#D9D9D9"/>
<defs>
<clipPath id="clip0_16_1490">
<rect width="20" height="20" fill="white" transform="translate(9 10)"/>
</clipPath>
</defs>
</svg>
