<svg width="50" height="50" viewBox="0 0 50 50" fill="none" xmlns="http://www.w3.org/2000/svg">
<rect width="50" height="50" rx="16" fill="#1877F2" fill-opacity="0.05"/>
<path d="M40.0912 25.0912C40.0912 16.7571 33.3341 10 25 10C16.6659 10 9.90881 16.7571 9.90881 25.0912C9.90881 32.6242 15.4272 38.8669 22.642 39.9987V29.4538H18.8101V25.0899H22.642V21.7673C22.642 17.9857 24.8956 15.8956 28.3427 15.8956C29.9927 15.8956 31.7206 16.1912 31.7206 16.1912V19.9048H29.8166C27.9415 19.9048 27.3567 21.0681 27.3567 22.2616V25.0912H31.542L30.873 29.455H27.3567V40C34.5728 38.8669 40.0912 32.6229 40.0912 25.0912Z" fill="#1877F2"/>
</svg>
