<svg width="103" height="40" viewBox="0 0 103 40" fill="none" xmlns="http://www.w3.org/2000/svg">
<g clip-path="url(#clip0_16_1489)">
<path d="M33.7874 20.225C33.7874 19.5667 33.7291 18.9417 33.6291 18.3333H24.2124V22.0917H29.6041C29.3624 23.325 28.6541 24.3667 27.6041 25.075V27.575H30.8207C32.7041 25.8333 33.7874 23.2667 33.7874 20.225Z" fill="#4285F4"/>
<path d="M24.2124 30C26.9124 30 29.1707 29.1 30.8207 27.575L27.604 25.075C26.704 25.675 25.5624 26.0417 24.2124 26.0417C21.604 26.0417 19.3957 24.2833 18.604 21.9083H15.2874V24.4833C16.929 27.75 20.304 30 24.2124 30Z" fill="#34A853"/>
<path d="M18.6041 21.9083C18.3957 21.3083 18.2874 20.6667 18.2874 20C18.2874 19.3333 18.4041 18.6917 18.6041 18.0917V15.5167H15.2874C14.6041 16.8667 14.2124 18.3833 14.2124 20C14.2124 21.6167 14.6041 23.1333 15.2874 24.4833L18.6041 21.9083Z" fill="#FBBC05"/>
<path d="M24.2124 13.9583C25.6874 13.9583 27.004 14.4667 28.0457 15.4583L30.8957 12.6083C29.1707 10.9917 26.9124 10 24.2124 10C20.304 10 16.929 12.25 15.2874 15.5167L18.604 18.0917C19.3957 15.7167 21.604 13.9583 24.2124 13.9583Z" fill="#EA4335"/>
</g>
<path d="M50.1586 19.0348C50.0625 18.7332 49.9333 18.4631 49.7709 18.2244C49.6118 17.9825 49.4212 17.777 49.1991 17.608C48.9771 17.4356 48.7235 17.3047 48.4385 17.2152C48.1568 17.1257 47.8469 17.081 47.5088 17.081C46.9354 17.081 46.4184 17.2285 45.9577 17.5234C45.497 17.8184 45.1324 18.2509 44.8639 18.821C44.5988 19.3878 44.4662 20.0821 44.4662 20.9041C44.4662 21.7294 44.6004 22.4271 44.8689 22.9972C45.1373 23.5672 45.5052 23.9998 45.9726 24.2947C46.4399 24.5897 46.9719 24.7372 47.5684 24.7372C48.122 24.7372 48.6042 24.6245 49.0152 24.3991C49.4295 24.1738 49.7493 23.8556 49.9747 23.4446C50.2034 23.0303 50.3177 22.5431 50.3177 21.983L50.7155 22.0575H47.8021V20.7898H51.8042V21.9482C51.8042 22.8033 51.622 23.5457 51.2574 24.1754C50.8961 24.8018 50.3956 25.2857 49.7559 25.6271C49.1196 25.9685 48.3904 26.1392 47.5684 26.1392C46.647 26.1392 45.8383 25.9271 45.1423 25.5028C44.4496 25.0786 43.9094 24.477 43.5216 23.6982C43.1338 22.916 42.9399 21.9879 42.9399 20.9141C42.9399 20.102 43.0526 19.3729 43.278 18.7266C43.5033 18.0803 43.8199 17.5317 44.2275 17.081C44.6385 16.6269 45.1208 16.2805 45.6743 16.0419C46.2311 15.8 46.8393 15.679 47.4988 15.679C48.049 15.679 48.5611 15.7602 49.0351 15.9226C49.5123 16.085 49.9366 16.3153 50.3078 16.6136C50.6823 16.9119 50.9922 17.2666 51.2375 17.6776C51.4827 18.0852 51.6485 18.5376 51.7346 19.0348H50.1586ZM56.8517 26.1541C56.1357 26.1541 55.511 25.9901 54.9774 25.6619C54.4437 25.3338 54.0294 24.8748 53.7345 24.2848C53.4395 23.6948 53.292 23.0054 53.292 22.2166C53.292 21.4245 53.4395 20.7318 53.7345 20.1385C54.0294 19.5452 54.4437 19.0845 54.9774 18.7564C55.511 18.4283 56.1357 18.2642 56.8517 18.2642C57.5676 18.2642 58.1923 18.4283 58.7259 18.7564C59.2596 19.0845 59.6739 19.5452 59.9688 20.1385C60.2638 20.7318 60.4113 21.4245 60.4113 22.2166C60.4113 23.0054 60.2638 23.6948 59.9688 24.2848C59.6739 24.8748 59.2596 25.3338 58.7259 25.6619C58.1923 25.9901 57.5676 26.1541 56.8517 26.1541ZM56.8566 24.9062C57.3206 24.9062 57.7051 24.7836 58.01 24.5384C58.315 24.2931 58.5403 23.9666 58.6862 23.5589C58.8353 23.1513 58.9099 22.7022 58.9099 22.2116C58.9099 21.7244 58.8353 21.277 58.6862 20.8693C58.5403 20.4583 58.315 20.1286 58.01 19.88C57.7051 19.6314 57.3206 19.5071 56.8566 19.5071C56.3893 19.5071 56.0015 19.6314 55.6933 19.88C55.3883 20.1286 55.1613 20.4583 55.0122 20.8693C54.8663 21.277 54.7934 21.7244 54.7934 22.2116C54.7934 22.7022 54.8663 23.1513 55.0122 23.5589C55.1613 23.9666 55.3883 24.2931 55.6933 24.5384C56.0015 24.7836 56.3893 24.9062 56.8566 24.9062ZM65.2872 26.1541C64.5713 26.1541 63.9465 25.9901 63.4129 25.6619C62.8793 25.3338 62.465 24.8748 62.17 24.2848C61.875 23.6948 61.7275 23.0054 61.7275 22.2166C61.7275 21.4245 61.875 20.7318 62.17 20.1385C62.465 19.5452 62.8793 19.0845 63.4129 18.7564C63.9465 18.4283 64.5713 18.2642 65.2872 18.2642C66.0031 18.2642 66.6279 18.4283 67.1615 18.7564C67.6951 19.0845 68.1094 19.5452 68.4044 20.1385C68.6994 20.7318 68.8469 21.4245 68.8469 22.2166C68.8469 23.0054 68.6994 23.6948 68.4044 24.2848C68.1094 24.8748 67.6951 25.3338 67.1615 25.6619C66.6279 25.9901 66.0031 26.1541 65.2872 26.1541ZM65.2922 24.9062C65.7562 24.9062 66.1407 24.7836 66.4456 24.5384C66.7505 24.2931 66.9759 23.9666 67.1217 23.5589C67.2709 23.1513 67.3454 22.7022 67.3454 22.2116C67.3454 21.7244 67.2709 21.277 67.1217 20.8693C66.9759 20.4583 66.7505 20.1286 66.4456 19.88C66.1407 19.6314 65.7562 19.5071 65.2922 19.5071C64.8248 19.5071 64.4371 19.6314 64.1288 19.88C63.8239 20.1286 63.5969 20.4583 63.4477 20.8693C63.3019 21.277 63.229 21.7244 63.229 22.2116C63.229 22.7022 63.3019 23.1513 63.4477 23.5589C63.5969 23.9666 63.8239 24.2931 64.1288 24.5384C64.4371 24.7836 64.8248 24.9062 65.2922 24.9062ZM73.7078 29.0227C73.1013 29.0227 72.5793 28.9432 72.1418 28.7841C71.7076 28.625 71.353 28.4145 71.0779 28.1527C70.8028 27.8909 70.5973 27.6042 70.4614 27.2926L71.7391 26.7656C71.8286 26.9115 71.9479 27.0656 72.097 27.228C72.2495 27.3937 72.455 27.5346 72.7135 27.6506C72.9753 27.7666 73.3118 27.8246 73.7227 27.8246C74.2862 27.8246 74.7519 27.687 75.1198 27.4119C75.4877 27.1402 75.6716 26.706 75.6716 26.1094V24.608H75.5771C75.4877 24.7704 75.3584 24.951 75.1894 25.1499C75.0236 25.3487 74.795 25.5211 74.5033 25.6669C74.2116 25.8127 73.8321 25.8857 73.3648 25.8857C72.7616 25.8857 72.218 25.7448 71.7341 25.4631C71.2535 25.178 70.8724 24.7588 70.5906 24.2053C70.3122 23.6484 70.173 22.964 70.173 22.152C70.173 21.34 70.3106 20.6439 70.5857 20.0639C70.8641 19.4839 71.2452 19.0398 71.7291 18.7315C72.213 18.42 72.7616 18.2642 73.3747 18.2642C73.8487 18.2642 74.2315 18.3438 74.5232 18.5028C74.8148 18.6586 75.0419 18.8409 75.2043 19.0497C75.37 19.2585 75.4976 19.4425 75.5871 19.6016H75.6965V18.3636H77.1531V26.169C77.1531 26.8253 77.0007 27.3639 76.6958 27.7848C76.3908 28.2057 75.9782 28.5173 75.4578 28.7195C74.9408 28.9216 74.3575 29.0227 73.7078 29.0227ZM73.6929 24.6527C74.1205 24.6527 74.4817 24.5533 74.7767 24.3544C75.075 24.1522 75.3004 23.8639 75.4529 23.4893C75.6086 23.1115 75.6865 22.6591 75.6865 22.1321C75.6865 21.6184 75.6103 21.166 75.4578 20.7749C75.3054 20.3838 75.0816 20.0788 74.7867 19.8601C74.4917 19.638 74.1271 19.527 73.6929 19.527C73.2455 19.527 72.8726 19.643 72.5743 19.875C72.276 20.1037 72.0506 20.4152 71.8982 20.8097C71.749 21.2041 71.6744 21.6449 71.6744 22.1321C71.6744 22.6326 71.7507 23.0717 71.9031 23.4496C72.0556 23.8274 72.281 24.1224 72.5793 24.3345C72.8809 24.5466 73.2521 24.6527 73.6929 24.6527ZM80.6333 15.8182V26H79.1468V15.8182H80.6333ZM85.9243 26.1541C85.1719 26.1541 84.5239 25.9934 83.9804 25.6719C83.4401 25.3471 83.0225 24.8913 82.7275 24.3047C82.4359 23.7147 82.29 23.0237 82.29 22.2315C82.29 21.4493 82.4359 20.7599 82.7275 20.1634C83.0225 19.5668 83.4335 19.1011 83.9605 18.7663C84.4908 18.4316 85.1106 18.2642 85.8199 18.2642C86.2507 18.2642 86.6684 18.3355 87.0727 18.478C87.4771 18.6205 87.84 18.8442 88.1615 19.1491C88.483 19.4541 88.7365 19.8501 88.9221 20.3374C89.1077 20.8213 89.2006 21.4096 89.2006 22.1023V22.6293H83.1302V21.5156H87.7439C87.7439 21.1245 87.6643 20.7782 87.5052 20.4766C87.3461 20.1716 87.1224 19.9313 86.8341 19.7557C86.549 19.58 86.2143 19.4922 85.8298 19.4922C85.4122 19.4922 85.0476 19.5949 84.7361 19.8004C84.4278 20.0026 84.1892 20.2678 84.0202 20.5959C83.8544 20.9207 83.7716 21.2737 83.7716 21.6548V22.5249C83.7716 23.0353 83.8611 23.4695 84.04 23.8274C84.2223 24.1854 84.4759 24.4588 84.8007 24.6477C85.1255 24.8333 85.505 24.9261 85.9392 24.9261C86.2209 24.9261 86.4778 24.8864 86.7098 24.8068C86.9418 24.724 87.1423 24.6013 87.3113 24.4389C87.4804 24.2765 87.6096 24.076 87.6991 23.8374L89.1061 24.0909C88.9934 24.5052 88.7912 24.8681 88.4996 25.1797C88.2112 25.4879 87.8483 25.7282 87.4108 25.9006C86.9766 26.0696 86.4811 26.1541 85.9243 26.1541Z" fill="#3D3D3D"/>
<rect x="0.5" y="0.5" width="102" height="39" rx="19.5" stroke="#D9D9D9"/>
<defs>
<clipPath id="clip0_16_1489">
<rect width="20" height="20" fill="white" transform="translate(14 10)"/>
</clipPath>
</defs>
</svg>
