<svg width="50" height="50" viewBox="0 0 50 50" fill="none" xmlns="http://www.w3.org/2000/svg">
<rect width="50" height="50" rx="16" fill="#EA4335" fill-opacity="0.05"/>
<g clip-path="url(#clip0_0_44)">
<path d="M39.6812 25.3375C39.6812 24.35 39.5937 23.4125 39.4437 22.5H25.3187V28.1375H33.4062C33.0437 29.9875 31.9812 31.55 30.4062 32.6125V36.3625H35.2312C38.0562 33.75 39.6812 29.9 39.6812 25.3375Z" fill="#4285F4"/>
<path d="M25.3187 40C29.3687 40 32.7562 38.65 35.2312 36.3625L30.4062 32.6125C29.0562 33.5125 27.3437 34.0625 25.3187 34.0625C21.4062 34.0625 18.0937 31.425 16.9062 27.8625H11.9312V31.725C14.3937 36.625 19.4562 40 25.3187 40Z" fill="#34A853"/>
<path d="M16.9062 27.8625C16.5937 26.9625 16.4312 26 16.4312 25C16.4312 24 16.6062 23.0375 16.9062 22.1375V18.275H11.9312C10.9062 20.3 10.3187 22.575 10.3187 25C10.3187 27.425 10.9062 29.7 11.9312 31.725L16.9062 27.8625Z" fill="#FBBC05"/>
<path d="M25.3187 15.9375C27.5312 15.9375 29.5062 16.7 31.0687 18.1875L35.3437 13.9125C32.7562 11.4875 29.3687 10 25.3187 10C19.4562 10 14.3937 13.375 11.9312 18.275L16.9062 22.1375C18.0937 18.575 21.4062 15.9375 25.3187 15.9375Z" fill="#EA4335"/>
</g>
<defs>
<clipPath id="clip0_0_44">
<rect width="30" height="30" fill="white" transform="translate(10 10)"/>
</clipPath>
</defs>
</svg>
