<svg width="153" height="150" viewBox="0 0 153 150" fill="none" xmlns="http://www.w3.org/2000/svg">
<mask id="path-1-outside-1_1_130" maskUnits="userSpaceOnUse" x="-1.98062" y="30.4844" width="121.729" height="121.729" fill="black">
<rect fill="white" x="-1.98062" y="30.4844" width="121.729" height="121.729"/>
<path fill-rule="evenodd" clip-rule="evenodd" d="M72.2857 47.9019C74.9632 45.3954 74.0934 40.9913 70.519 40.1693C68.7969 39.7732 67.0384 39.4604 65.2474 39.2355C36.5754 35.636 10.4142 55.9612 6.81466 84.6331C3.21511 113.305 23.5403 139.466 52.2123 143.066C80.8843 146.665 107.046 126.34 110.645 97.6683C111.244 92.9005 111.181 88.2022 110.528 83.6655C110.001 80.0048 105.629 78.8018 102.929 81.3294L97.6919 86.2319C96.5718 87.2804 96.016 88.7848 96.0483 90.3187C96.0863 92.1242 95.9935 93.9547 95.7619 95.7998C93.1943 116.252 74.533 130.75 54.0808 128.183C33.6285 125.615 19.1302 106.954 21.6978 86.5016C24.2654 66.0494 42.9267 51.5511 63.3789 54.1187C64.6103 54.2733 65.8618 53.9155 66.7678 53.0673L72.2857 47.9019Z"/>
</mask>
<path fill-rule="evenodd" clip-rule="evenodd" d="M72.2857 47.9019C74.9632 45.3954 74.0934 40.9913 70.519 40.1693C68.7969 39.7732 67.0384 39.4604 65.2474 39.2355C36.5754 35.636 10.4142 55.9612 6.81466 84.6331C3.21511 113.305 23.5403 139.466 52.2123 143.066C80.8843 146.665 107.046 126.34 110.645 97.6683C111.244 92.9005 111.181 88.2022 110.528 83.6655C110.001 80.0048 105.629 78.8018 102.929 81.3294L97.6919 86.2319C96.5718 87.2804 96.016 88.7848 96.0483 90.3187C96.0863 92.1242 95.9935 93.9547 95.7619 95.7998C93.1943 116.252 74.533 130.75 54.0808 128.183C33.6285 125.615 19.1302 106.954 21.6978 86.5016C24.2654 66.0494 42.9267 51.5511 63.3789 54.1187C64.6103 54.2733 65.8618 53.9155 66.7678 53.0673L72.2857 47.9019Z" fill="#F5F5F5"/>
<path d="M102.929 81.3294L104.296 82.7895L102.929 81.3294ZM66.7678 53.0673L65.401 51.6073L66.7678 53.0673ZM97.6919 86.2319L96.3251 84.7718L97.6919 86.2319ZM64.9983 41.2199C66.7223 41.4364 68.4143 41.7375 70.0707 42.1184L70.9672 38.2201C69.1795 37.809 67.3546 37.4843 65.4965 37.2511L64.9983 41.2199ZM8.79908 84.8823C12.261 57.3063 37.4223 37.758 64.9983 41.2199L65.4965 37.2511C35.7286 33.5139 8.56737 54.6161 4.83023 84.384L8.79908 84.8823ZM52.4614 141.081C24.8854 137.62 5.33712 112.458 8.79908 84.8823L4.83023 84.384C1.09309 114.152 22.1952 141.313 51.9632 145.05L52.4614 141.081ZM108.661 97.4191C105.199 124.995 80.0374 144.543 52.4614 141.081L51.9632 145.05C81.7311 148.787 108.892 127.685 112.629 97.9174L108.661 97.4191ZM108.548 83.9504C109.176 88.3118 109.237 92.8305 108.661 97.4191L112.629 97.9174C113.251 92.9706 113.185 88.0927 112.507 83.3806L108.548 83.9504ZM101.562 79.8693L96.3251 84.7718L99.0587 87.692L104.296 82.7895L101.562 79.8693ZM97.7463 96.0489C97.9901 94.1069 98.0879 92.1791 98.0478 90.2766L94.0487 90.3608C94.0847 92.0692 93.9969 93.8024 93.7775 95.5507L97.7463 96.0489ZM53.8316 130.167C75.3798 132.872 95.0411 117.597 97.7463 96.0489L93.7775 95.5507C91.3474 114.907 73.6862 128.628 54.3299 126.198L53.8316 130.167ZM19.7134 86.2525C17.0082 107.801 32.2834 127.462 53.8316 130.167L54.3299 126.198C34.9736 123.768 21.2522 106.107 23.6823 86.7507L19.7134 86.2525ZM63.6281 52.1343C42.0799 49.429 22.4186 64.7043 19.7134 86.2525L23.6823 86.7507C26.1123 67.3945 43.7736 53.6731 63.1298 56.1031L63.6281 52.1343ZM68.1346 54.5274L73.6525 49.362L70.9188 46.4419L65.401 51.6073L68.1346 54.5274ZM112.507 83.3806C112.125 80.7249 110.305 78.9077 108.11 78.2589C105.946 77.619 103.439 78.1123 101.562 79.8693L104.296 82.7895C105.119 82.0189 106.148 81.8499 106.976 82.0948C107.775 82.3308 108.403 82.9454 108.548 83.9504L112.507 83.3806ZM63.1298 56.1031C64.8945 56.3246 66.7547 55.8191 68.1346 54.5274L65.401 51.6073C64.9689 52.0118 64.3261 52.2219 63.6281 52.1343L63.1298 56.1031ZM96.3251 84.7718C94.7408 86.2549 94.006 88.3306 94.0487 90.3608L98.0478 90.2766C98.026 89.239 98.4028 88.306 99.0587 87.692L96.3251 84.7718ZM70.0707 42.1184C71.0523 42.3441 71.6159 43.0161 71.7924 43.8285C71.9752 44.6701 71.7346 45.6782 70.9188 46.4419L73.6525 49.362C75.5143 47.6191 76.1775 45.1719 75.7012 42.9793C75.2186 40.7575 73.5601 38.8164 70.9672 38.2201L70.0707 42.1184Z" fill="#F5F5F5" mask="url(#path-1-outside-1_1_130)"/>
<path d="M111.761 25.0097C120.137 25.099 126.817 32.031 126.596 40.4047L125.849 68.7233C125.732 73.1573 120.328 75.2547 117.25 72.0608L79.7808 33.1771C76.703 29.9832 78.9991 24.6607 83.4344 24.708L111.761 25.0097Z" fill="#F5F5F5"/>
<rect x="99.2946" y="42.7998" width="14.084" height="46.2842" rx="7.04202" transform="rotate(46.0881 99.2946 42.7998)" fill="#F5F5F5"/>
<path d="M97.7391 35.0746C99.8379 33.0489 88.2823 42.0078 90.3079 44.1066C92.3336 46.2054 92.2744 49.5489 90.1756 51.5746C88.0768 53.6003 110.044 47.3161 108.018 45.2173C105.992 43.1185 95.6404 37.1003 97.7391 35.0746Z" fill="#F5F5F5"/>
<path d="M99.9563 61.7085C102.055 59.6829 105.399 59.7421 107.424 61.8409C109.45 63.9397 112.3 46.4674 110.201 48.4931C108.102 50.5188 106.087 45.7518 104.061 43.653C102.036 41.5542 97.8575 63.7342 99.9563 61.7085Z" fill="#F5F5F5"/>
</svg>
