<svg width="103" height="40" viewBox="0 0 103 40" fill="none" xmlns="http://www.w3.org/2000/svg">
<rect x="0.5" y="0.5" width="102" height="39" rx="19.5" stroke="#D9D9D9"/>
<path d="M41.4204 25V14.8182H45.0496C45.8418 14.8182 46.498 14.9624 47.0184 15.2507C47.5387 15.5391 47.9282 15.9335 48.1867 16.4339C48.4452 16.9311 48.5745 17.4912 48.5745 18.1143C48.5745 18.7408 48.4436 19.3042 48.1817 19.8047C47.9232 20.3018 47.5321 20.6963 47.0084 20.9879C46.4881 21.2763 45.8335 21.4205 45.0447 21.4205H42.5489V20.1179H44.9055C45.4059 20.1179 45.8119 20.0317 46.1235 19.8594C46.435 19.6837 46.6637 19.4451 46.8096 19.1435C46.9554 18.8419 47.0283 18.4988 47.0283 18.1143C47.0283 17.7299 46.9554 17.3885 46.8096 17.0902C46.6637 16.7919 46.4334 16.5582 46.1185 16.3892C45.807 16.2202 45.396 16.1357 44.8856 16.1357H42.9566V25H41.4204ZM51.7426 20.4659V25H50.2561V14.8182H51.7227V18.6065H51.8172C51.9962 18.1955 52.2696 17.8691 52.6375 17.6271C53.0054 17.3852 53.486 17.2642 54.0793 17.2642C54.603 17.2642 55.0603 17.3719 55.4514 17.5874C55.8459 17.8028 56.1508 18.1243 56.3662 18.5518C56.585 18.9761 56.6943 19.5064 56.6943 20.1428V25H55.2078V20.3217C55.2078 19.7616 55.0637 19.3274 54.7753 19.0192C54.4869 18.7076 54.0859 18.5518 53.5722 18.5518C53.2209 18.5518 52.906 18.6264 52.6276 18.7756C52.3525 18.9247 52.1354 19.1435 51.9763 19.4318C51.8205 19.7169 51.7426 20.0616 51.7426 20.4659ZM61.8946 25.1541C61.1787 25.1541 60.5539 24.9901 60.0203 24.6619C59.4867 24.3338 59.0724 23.8748 58.7774 23.2848C58.4825 22.6948 58.335 22.0054 58.335 21.2166C58.335 20.4245 58.4825 19.7318 58.7774 19.1385C59.0724 18.5452 59.4867 18.0845 60.0203 17.7564C60.5539 17.4283 61.1787 17.2642 61.8946 17.2642C62.6105 17.2642 63.2353 17.4283 63.7689 17.7564C64.3025 18.0845 64.7168 18.5452 65.0118 19.1385C65.3068 19.7318 65.4543 20.4245 65.4543 21.2166C65.4543 22.0054 65.3068 22.6948 65.0118 23.2848C64.7168 23.8748 64.3025 24.3338 63.7689 24.6619C63.2353 24.9901 62.6105 25.1541 61.8946 25.1541ZM61.8996 23.9062C62.3636 23.9062 62.7481 23.7836 63.053 23.5384C63.3579 23.2931 63.5833 22.9666 63.7291 22.5589C63.8783 22.1513 63.9529 21.7022 63.9529 21.2116C63.9529 20.7244 63.8783 20.277 63.7291 19.8693C63.5833 19.4583 63.3579 19.1286 63.053 18.88C62.7481 18.6314 62.3636 18.5071 61.8996 18.5071C61.4323 18.5071 61.0445 18.6314 60.7362 18.88C60.4313 19.1286 60.2043 19.4583 60.0551 19.8693C59.9093 20.277 59.8364 20.7244 59.8364 21.2116C59.8364 21.7022 59.9093 22.1513 60.0551 22.5589C60.2043 22.9666 60.4313 23.2931 60.7362 23.5384C61.0445 23.7836 61.4323 23.9062 61.8996 23.9062ZM68.6001 20.4659V25H67.1135V17.3636H68.5404V18.6065H68.6349C68.8105 18.2022 69.0856 17.8774 69.4601 17.6321C69.838 17.3868 70.3136 17.2642 70.887 17.2642C71.4073 17.2642 71.8631 17.3736 72.2542 17.5923C72.6453 17.8078 72.9485 18.1293 73.164 18.5568C73.3794 18.9844 73.4871 19.513 73.4871 20.1428V25H72.0006V20.3217C72.0006 19.7682 71.8564 19.3357 71.5681 19.0241C71.2797 18.7093 70.8837 18.5518 70.3799 18.5518C70.0352 18.5518 69.7286 18.6264 69.4601 18.7756C69.195 18.9247 68.9845 19.1435 68.8287 19.4318C68.6763 19.7169 68.6001 20.0616 68.6001 20.4659ZM78.7719 25.1541C78.0196 25.1541 77.3716 24.9934 76.828 24.6719C76.2878 24.3471 75.8702 23.8913 75.5752 23.3047C75.2835 22.7147 75.1377 22.0237 75.1377 21.2315C75.1377 20.4493 75.2835 19.7599 75.5752 19.1634C75.8702 18.5668 76.2812 18.1011 76.8081 17.7663C77.3385 17.4316 77.9582 17.2642 78.6675 17.2642C79.0984 17.2642 79.516 17.3355 79.9204 17.478C80.3247 17.6205 80.6876 17.8442 81.0091 18.1491C81.3306 18.4541 81.5842 18.8501 81.7698 19.3374C81.9554 19.8213 82.0482 20.4096 82.0482 21.1023V21.6293H75.9779V20.5156H80.5915C80.5915 20.1245 80.512 19.7782 80.3529 19.4766C80.1938 19.1716 79.9701 18.9313 79.6817 18.7557C79.3967 18.58 79.0619 18.4922 78.6775 18.4922C78.2599 18.4922 77.8953 18.5949 77.5837 18.8004C77.2755 19.0026 77.0368 19.2678 76.8678 19.5959C76.7021 19.9207 76.6192 20.2737 76.6192 20.6548V21.5249C76.6192 22.0353 76.7087 22.4695 76.8877 22.8274C77.07 23.1854 77.3235 23.4588 77.6483 23.6477C77.9732 23.8333 78.3527 23.9261 78.7868 23.9261C79.0686 23.9261 79.3254 23.8864 79.5574 23.8068C79.7894 23.724 79.99 23.6013 80.159 23.4389C80.328 23.2765 80.4573 23.076 80.5468 22.8374L81.9537 23.0909C81.8411 23.5052 81.6389 23.8681 81.3472 24.1797C81.0589 24.4879 80.6959 24.7282 80.2584 24.9006C79.8242 25.0696 79.3287 25.1541 78.7719 25.1541Z" fill="#3D3D3D"/>
<path d="M20 28V12C20 10.9 20.9 10 22 10H30C31.1 10 32 10.9 32 12V28C32 29.1 31.1 30 30 30H22C20.9 30 20 29.1 20 28Z" fill="#37474F"/>
<path d="M30 11.5H22C21.7 11.5 21.5 11.7 21.5 12V26.5C21.5 26.8 21.7 27 22 27H30C30.3 27 30.5 26.8 30.5 26.5V12C30.5 11.7 30.3 11.5 30 11.5Z" fill="#BBDEFB"/>
<path d="M24.5 28H27.5V29H24.5V28Z" fill="#78909C"/>
</svg>
