<svg width="331" height="183" viewBox="0 0 331 183" fill="none" xmlns="http://www.w3.org/2000/svg">
<path d="M85.6927 0.331838C132.339 -2.36691 181.248 11.6815 174.058 32.0555C166.868 52.4294 212.491 24.8233 230.7 32.1621C243.66 37.389 238.476 53.3041 244.748 59.715C259.127 74.4141 273.826 55.9069 292.131 67.0112C310.425 78.1262 302.819 182.012 295.374 182.001L13.1891 181.489L9.80766 181.596C9.80766 181.596 -10.8863 151.75 7.84493 134.32C26.5762 116.89 13.7118 108.922 11.4397 102.191C8.82629 94.4574 2.72477 80.953 29.3069 71.0433C55.8784 61.1337 49.0195 39.565 48.3688 35.0956C47.7075 30.6368 39.0566 3.03059 85.6927 0.331838Z" fill="#EAFCFC"/>
<path opacity="0.6" d="M250.85 16.0656H229.473V181.521H250.85V16.0656Z" fill="#9BC1F9"/>
<path opacity="0.6" d="M221.003 66.531H199.627V181.521H221.003V66.531Z" fill="#9BC1F9"/>
<path opacity="0.6" d="M281.133 51.9066H259.756V181.521H281.133V51.9066Z" fill="#9BC1F9"/>
<path opacity="0.6" d="M191.147 46.8187H169.77V181.521H191.147V46.8187Z" fill="#9BC1F9"/>
<path opacity="0.6" d="M161.3 86.7557H139.923V181.521H161.3V86.7557Z" fill="#9BC1F9"/>
<path opacity="0.3" d="M250.851 54.1999H229.474V181.521H250.851V54.1999Z" fill="#9BC1F9"/>
<path opacity="0.3" d="M221.003 93.0385H199.626V181.521H221.003V93.0385Z" fill="#9BC1F9"/>
<path opacity="0.3" d="M281.134 81.7849H259.757V181.521H281.134V81.7849Z" fill="#9BC1F9"/>
<path opacity="0.3" d="M191.146 77.8591H169.77V181.521H191.146V77.8591Z" fill="#9BC1F9"/>
<path opacity="0.3" d="M161.301 108.591H139.924V181.521H161.301V108.591Z" fill="#9BC1F9"/>
<path d="M291.523 17.3243L274.488 30.21L280.995 30.626L240.332 102.191L217.814 68.4299L185.973 142.725L165.482 113.626L139.956 149.712L141.556 156.177L165.471 122.533L187.125 153.286L218.859 79.2782L240.705 112.026L285.72 32.8021L289.902 37.2929L291.523 17.3243Z" fill="#5183BF"/>
<path d="M120.478 133.68C96.04 114.212 75.4954 89.0384 59.9429 59.4802C48.7426 68.4831 37.5316 77.486 26.3206 86.4783C44.3051 120.655 68.0498 149.766 96.3067 172.273C104.371 159.409 112.425 146.544 120.478 133.68Z" fill="#3C8F7C"/>
<path d="M54.6848 66.5312C47.7193 72.2167 40.7537 77.9023 33.7988 83.5771C35.4522 86.6705 34.8549 90.8413 32.3801 92.9534C48.1886 120.901 67.9972 145.179 91.0593 164.892C92.9473 162.065 96.4994 161.51 99.0595 163.58C104.137 155.59 109.214 147.6 114.292 139.611C111.945 137.701 111.604 133.808 113.492 130.981C93.2353 113.679 75.8375 92.356 61.9597 67.8113C59.4956 69.9233 56.2102 69.3793 54.6848 66.5312Z" fill="#96D9C9"/>
<path d="M82.8136 130.426C88.0297 123.696 87.9871 113.754 83.0589 107.812C78.1201 101.882 69.6932 101.604 63.8583 107.599C58.0341 113.583 57.4795 124.208 63.0263 130.885C68.5625 137.563 77.6081 137.147 82.8136 130.426Z" fill="#50BFA5"/>
<path d="M82.4724 111.311C81.8218 112.036 81.1604 112.772 80.5097 113.498C82.0778 116.378 81.7471 119.343 80.051 121.285C78.3443 123.237 76.4349 123.418 73.5122 121.69C71.4001 120.495 70.3761 120.143 69.7361 120.837C69.192 121.423 69.0107 122.501 70.1627 123.962C70.7921 124.751 71.4214 125.285 71.9761 125.658C72.7121 126.159 72.9468 127.28 72.4988 128.144C72.0615 128.976 71.1228 129.253 70.4081 128.752C69.8214 128.336 69.192 127.77 68.4987 126.981C67.9333 127.61 67.368 128.229 66.792 128.858C66.1946 128.112 65.6079 127.365 65.0212 126.607C65.6399 125.935 66.2586 125.274 66.8773 124.602C65.3839 121.711 65.6719 118.831 67.4106 117.007C69.3307 114.991 71.5494 115.61 74.0989 117.21C75.8589 118.309 76.8829 118.49 77.619 117.669C78.387 116.805 78.1416 115.503 77.1709 114.266C76.5096 113.412 75.7309 112.772 74.9736 112.292C74.2269 111.823 74.0242 110.671 74.5255 109.807C74.5469 109.775 74.5575 109.743 74.5789 109.711C75.0376 108.932 75.9122 108.666 76.5736 109.092C77.3736 109.615 78.227 110.362 78.9843 111.236C79.603 110.564 80.211 109.892 80.8297 109.22C81.3737 109.924 81.9178 110.618 82.4724 111.311Z" fill="#3C8F7C"/>
<path d="M102.067 147.75C96.4988 142.982 91.1333 137.925 85.9811 132.603C85.0957 133.755 84.2104 134.896 83.3357 136.048C88.5625 141.446 94.0027 146.576 99.6562 151.409C100.456 150.192 101.267 148.976 102.067 147.75Z" fill="#50BFA5"/>
<path d="M115.497 125.829C84.7976 121.935 54.6847 111.663 26.7478 95.556C21.4357 107.994 16.1235 120.442 10.822 132.88C43.1217 151.504 77.9281 163.387 113.428 167.889C114.121 153.862 114.804 139.845 115.497 125.829Z" fill="#3C8F7C"/>
<path d="M25.639 103.642C22.3855 111.439 19.1321 119.237 15.8787 127.034C18.8228 128.698 20.3481 132.293 19.2388 135.141C46.5996 149.851 75.6458 159.761 105.268 164.497C105.513 161.361 108.329 159.238 111.562 159.675C112.052 150.939 112.554 142.192 113.044 133.456C110.079 133.051 107.881 130.117 108.127 126.981C82.11 122.821 56.6052 114.127 32.5832 101.21C31.4738 104.058 28.3484 105.178 25.639 103.642Z" fill="#96D9C9"/>
<path d="M81.2567 141.051C82.4834 133.243 77.5872 125.381 70.4084 122.992C63.2295 120.624 55.7839 124.389 53.6612 131.899C51.5384 139.397 56.2533 148.102 64.3282 150.779C72.4031 153.457 80.0407 148.848 81.2567 141.051Z" fill="#50BFA5"/>
<path d="M71.6144 126.042C71.401 126.928 71.1877 127.813 70.9744 128.709C73.7371 130.245 74.9105 132.762 74.3878 135.109C73.8651 137.467 72.2971 138.512 68.9263 138.523C66.5049 138.576 65.4489 138.779 65.2355 139.632C65.0542 140.357 65.4169 141.296 67.1342 141.904C68.0623 142.235 68.873 142.363 69.5343 142.395C70.4197 142.437 71.177 143.227 71.1984 144.123C71.2197 144.998 70.5477 145.659 69.6837 145.595C68.9796 145.542 68.1476 145.392 67.1662 145.094C66.9849 145.862 66.7929 146.619 66.6116 147.387C65.7369 147.078 64.8515 146.758 63.9768 146.438C64.1902 145.616 64.3928 144.795 64.5955 143.963C61.8861 142.373 60.734 139.952 61.3527 137.68C62.0354 135.173 64.2542 134.619 67.2409 134.683C69.3103 134.725 70.281 134.373 70.5157 133.381C70.761 132.336 69.9077 131.418 68.457 130.896C67.4649 130.533 66.4729 130.384 65.5769 130.362C64.7022 130.341 63.9555 129.52 63.9661 128.602C63.9661 128.57 63.9661 128.538 63.9661 128.506C63.9768 127.674 64.6062 127.045 65.3955 127.077C66.3449 127.109 67.4543 127.301 68.5423 127.642C68.745 126.821 68.9583 125.989 69.161 125.168C69.993 125.466 70.8037 125.754 71.6144 126.042Z" fill="#3C8F7C"/>
<path d="M101.394 63.8751C100.647 63.6297 99.9111 63.3417 99.2071 63.0004C98.407 62.6164 97.3723 62.1683 96.711 62.0617C95.3349 61.8483 92.9669 61.987 91.6548 63.4057C90.0228 65.1658 87.132 63.7257 87.7081 72.9527C88.3694 83.3957 94.1936 82.2543 94.3323 82.073C94.4709 81.8916 99.5271 75.3954 99.5271 75.3954C99.5271 75.3954 101.298 79.2462 101.298 79.1075C101.308 78.9689 110.333 66.8725 101.394 63.8751Z" fill="#0E2E35"/>
<path d="M107.537 132.72C83.3766 142.267 56.7304 146.63 28.9856 145.574C30.831 157.382 32.6657 169.19 34.5111 180.988C66.5868 182.204 97.4037 177.158 125.341 166.118C119.399 154.992 113.468 143.856 107.537 132.72Z" fill="#3C8F7C"/>
<path d="M31.8872 152.304C33.0926 159.675 34.3086 167.046 35.514 174.417C38.4261 174.502 41.1782 176.668 41.6795 179.324C68.3683 179.516 94.0758 175.313 117.831 166.854C116.572 164.326 117.65 161.531 120.199 160.55C116.551 153.584 112.892 146.608 109.244 139.643C106.898 140.549 103.943 139.173 102.695 136.645C81.8301 144.069 59.2587 147.76 35.8233 147.589C36.3247 150.235 34.5646 152.379 31.8872 152.304Z" fill="#96D9C9"/>
<path d="M89.5739 158.513C86.8858 151.963 79.7069 147.878 73.3814 148.966C67.0666 150.064 63.3651 156.027 65.2638 162.715C67.1626 169.393 74.5868 174.204 81.7017 172.966C88.8166 171.74 92.262 165.051 89.5739 158.513Z" fill="#50BFA5"/>
<path d="M75.6635 150.843C75.9195 151.622 76.1649 152.39 76.4209 153.168C79.141 153.232 81.1464 154.705 81.8397 156.721C82.5437 158.758 81.8824 160.219 79.429 161.595C77.6903 162.63 77.0182 163.217 77.2529 163.963C77.4556 164.604 78.1489 165.18 79.685 164.945C80.517 164.817 81.157 164.593 81.6584 164.347C82.3197 164.017 83.2371 164.315 83.6638 165.009C84.0798 165.67 83.8985 166.46 83.2371 166.769C82.6931 167.014 82.0211 167.238 81.1677 167.409C81.381 168.081 81.5944 168.742 81.8184 169.414C81.0397 169.532 80.2503 169.649 79.461 169.756C79.237 169.03 79.013 168.316 78.7783 167.59C76.0689 167.473 74.1275 166.065 73.5301 164.049C72.8688 161.83 74.2342 160.486 76.4422 159.313C77.9676 158.502 78.5116 157.83 78.2343 156.966C77.9356 156.059 76.8902 155.697 75.5889 155.878C74.7035 156.006 73.9142 156.294 73.2528 156.646C72.6021 156.987 71.6847 156.657 71.2794 155.942C71.2687 155.921 71.2474 155.889 71.2367 155.867C70.8634 155.217 71.0341 154.47 71.6207 154.171C72.3248 153.809 73.2208 153.499 74.1702 153.318C73.9462 152.592 73.7115 151.878 73.4875 151.152C74.2128 151.056 74.9382 150.95 75.6635 150.843Z" fill="#3C8F7C"/>
<path d="M110.045 151.824C104.295 153.862 98.4284 155.633 92.4656 157.137C92.9243 158.246 93.3936 159.366 93.8523 160.475C99.9111 158.95 105.853 157.147 111.677 155.089C111.133 153.99 110.589 152.912 110.045 151.824Z" fill="#50BFA5"/>
<path d="M67.6863 171.655V180.306C67.6863 181.703 83.2814 182.834 102.525 182.834C121.768 182.834 137.363 181.703 137.363 180.306V171.655H67.6863Z" fill="#E59F39"/>
<path d="M92.8931 182.737V171.654H67.687V180.305C67.687 181.468 78.3327 182.439 92.8931 182.737Z" fill="#EAB054"/>
<path d="M94.0664 182.759C96.7758 182.812 99.6026 182.833 102.515 182.833C106.856 182.833 111.016 182.78 114.856 182.673V171.654H94.0664V182.759Z" fill="#EAB054"/>
<path d="M116.254 182.631C128.671 182.247 137.364 181.351 137.364 180.305V171.654H116.254V182.631Z" fill="#EAB054"/>
<path d="M102.514 174.097C121.755 174.097 137.353 172.966 137.353 171.569C137.353 170.173 121.755 169.041 102.514 169.041C83.2735 169.041 67.6758 170.173 67.6758 171.569C67.6758 172.966 83.2735 174.097 102.514 174.097Z" fill="#E59F39"/>
<path d="M131.208 171.569C131.208 172.54 118.365 173.329 102.525 173.329C86.6841 173.329 73.8411 172.54 73.8411 171.569C73.8411 170.599 86.6841 169.809 102.525 169.809C118.365 169.809 131.208 170.599 131.208 171.569Z" fill="#F7CC7F"/>
<path d="M61.7246 162.503V171.153C61.7246 172.551 77.3198 173.682 96.563 173.682C115.806 173.682 131.401 172.551 131.401 171.153V162.503H61.7246Z" fill="#E59F39"/>
<path d="M86.9307 173.586V162.503H61.7246V171.153C61.7246 172.316 72.3703 173.287 86.9307 173.586Z" fill="#EAB054"/>
<path d="M88.104 173.618C90.8134 173.671 93.6402 173.692 96.5523 173.692C100.894 173.692 105.054 173.639 108.894 173.532V162.513H88.104V173.618Z" fill="#EAB054"/>
<path d="M110.292 173.479C122.708 173.095 131.402 172.199 131.402 171.154V162.503H110.292V173.479Z" fill="#EAB054"/>
<path d="M96.563 164.945C115.804 164.945 131.401 163.813 131.401 162.417C131.401 161.021 115.804 159.889 96.563 159.889C77.3223 159.889 61.7246 161.021 61.7246 162.417C61.7246 163.813 77.3223 164.945 96.563 164.945Z" fill="#E59F39"/>
<path d="M125.246 162.417C125.246 163.388 112.403 164.177 96.5629 164.177C80.7225 164.177 67.8794 163.388 67.8794 162.417C67.8794 161.447 80.7225 160.657 96.5629 160.657C112.403 160.657 125.246 161.447 125.246 162.417Z" fill="#F7CC7F"/>
<path d="M65.6914 153.115V161.766C65.6914 163.164 81.2866 164.294 100.53 164.294C119.773 164.294 135.368 163.164 135.368 161.766V153.115H65.6914Z" fill="#E59F39"/>
<path d="M90.9082 164.198V153.115H65.6914V161.766C65.6914 162.918 76.3477 163.889 90.9082 164.198Z" fill="#EAB054"/>
<path d="M92.0813 164.22C94.7907 164.273 97.6175 164.294 100.53 164.294C104.871 164.294 109.031 164.241 112.871 164.134V153.115H92.0813V164.22Z" fill="#EAB054"/>
<path d="M114.259 164.092C126.675 163.708 135.369 162.811 135.369 161.766V153.115H114.259V164.092Z" fill="#EAB054"/>
<path d="M100.53 155.547C119.771 155.547 135.368 154.415 135.368 153.019C135.368 151.623 119.771 150.491 100.53 150.491C81.2891 150.491 65.6914 151.623 65.6914 153.019C65.6914 154.415 81.2891 155.547 100.53 155.547Z" fill="#E59F39"/>
<path d="M129.214 153.019C129.214 153.99 116.37 154.779 100.53 154.779C84.6895 154.779 71.8464 153.99 71.8464 153.019C71.8464 152.048 84.6895 151.259 100.53 151.259C116.37 151.27 129.214 152.048 129.214 153.019Z" fill="#F7CC7F"/>
<path d="M61.7246 143.846V152.497C61.7246 153.894 77.3198 155.025 96.563 155.025C115.806 155.025 131.401 153.894 131.401 152.497V143.846H61.7246Z" fill="#E59F39"/>
<path d="M86.9307 154.929V143.846H61.7246V152.497C61.7246 153.649 72.3703 154.63 86.9307 154.929Z" fill="#EAB054"/>
<path d="M88.104 154.95C90.8134 155.003 93.6402 155.025 96.5523 155.025C100.894 155.025 105.054 154.971 108.894 154.865V143.846H88.104V154.95Z" fill="#EAB054"/>
<path d="M110.292 154.822C122.708 154.438 131.402 153.542 131.402 152.497V143.846H110.292V154.822Z" fill="#EAB054"/>
<path d="M96.563 146.278C115.804 146.278 131.401 145.146 131.401 143.75C131.401 142.353 115.804 141.222 96.563 141.222C77.3223 141.222 61.7246 142.353 61.7246 143.75C61.7246 145.146 77.3223 146.278 96.563 146.278Z" fill="#E59F39"/>
<path d="M125.246 143.75C125.246 144.72 112.403 145.51 96.5629 145.51C80.7225 145.51 67.8794 144.72 67.8794 143.75C67.8794 142.779 80.7225 141.99 96.5629 141.99C112.403 142 125.246 142.79 125.246 143.75Z" fill="#F7CC7F"/>
<path d="M305.635 170.919V179.239C305.635 180.583 290.637 181.671 272.13 181.671C253.623 181.671 238.625 180.583 238.625 179.239V170.919H305.635Z" fill="#E59F39"/>
<path d="M281.389 181.575V170.919H305.635V179.239C305.635 180.348 295.395 181.287 281.389 181.575Z" fill="#EAB054"/>
<path d="M280.269 181.596C277.666 181.639 274.946 181.671 272.141 181.671C267.959 181.671 263.97 181.618 260.279 181.511V170.919H280.269V181.596Z" fill="#EAB054"/>
<path d="M258.924 181.479C246.988 181.106 238.625 180.242 238.625 179.239V170.919H258.924V181.479Z" fill="#EAB054"/>
<path d="M272.13 173.265C290.634 173.265 305.635 172.176 305.635 170.833C305.635 169.49 290.634 168.401 272.13 168.401C253.626 168.401 238.625 169.49 238.625 170.833C238.625 172.176 253.626 173.265 272.13 173.265Z" fill="#E59F39"/>
<path d="M244.546 170.833C244.546 171.761 256.899 172.518 272.131 172.518C287.363 172.518 299.716 171.761 299.716 170.833C299.716 169.905 287.363 169.148 272.131 169.148C256.899 169.148 244.546 169.894 244.546 170.833Z" fill="#F7CC7F"/>
<path d="M311.375 162.118V170.438C311.375 171.783 296.377 172.871 277.87 172.871C259.363 172.871 244.365 171.783 244.365 170.438V162.118H311.375Z" fill="#E59F39"/>
<path d="M287.129 172.774V162.118H311.375V170.438C311.375 171.548 301.124 172.486 287.129 172.774Z" fill="#EAB054"/>
<path d="M285.998 172.796C283.395 172.839 280.675 172.871 277.87 172.871C273.688 172.871 269.699 172.817 266.008 172.71V162.118H285.998V172.796Z" fill="#EAB054"/>
<path d="M264.664 172.679C252.728 172.305 244.365 171.441 244.365 170.438V162.118H264.664V172.679Z" fill="#EAB054"/>
<path d="M277.87 164.465C296.374 164.465 311.375 163.376 311.375 162.033C311.375 160.69 296.374 159.601 277.87 159.601C259.366 159.601 244.365 160.69 244.365 162.033C244.365 163.376 259.366 164.465 277.87 164.465Z" fill="#E59F39"/>
<path d="M277.87 163.718C293.104 163.718 305.455 162.964 305.455 162.033C305.455 161.102 293.104 160.348 277.87 160.348C262.635 160.348 250.285 161.102 250.285 162.033C250.285 162.964 262.635 163.718 277.87 163.718Z" fill="#F7CC7F"/>
<path d="M307.556 153.083V161.403C307.556 162.747 292.558 163.836 274.051 163.836C255.543 163.836 240.546 162.747 240.546 161.403V153.083H307.556Z" fill="#E59F39"/>
<path d="M283.31 163.739V153.083H307.556V161.403C307.556 162.513 297.305 163.451 283.31 163.739Z" fill="#EAB054"/>
<path d="M282.179 163.761C279.577 163.803 276.857 163.835 274.051 163.835C269.87 163.835 265.88 163.782 262.189 163.675V153.083H282.179V163.761Z" fill="#EAB054"/>
<path d="M260.845 163.643C248.909 163.27 240.546 162.406 240.546 161.403V153.083H260.845V163.643Z" fill="#EAB054"/>
<path d="M274.05 155.43C292.555 155.43 307.555 154.341 307.555 152.998C307.555 151.655 292.555 150.566 274.05 150.566C255.546 150.566 240.545 151.655 240.545 152.998C240.545 154.341 255.546 155.43 274.05 155.43Z" fill="#E59F39"/>
<path d="M274.05 154.683C289.285 154.683 301.635 153.929 301.635 152.998C301.635 152.067 289.285 151.313 274.05 151.313C258.816 151.313 246.466 152.067 246.466 152.998C246.466 153.929 258.816 154.683 274.05 154.683Z" fill="#F7CC7F"/>
<path d="M311.375 144.176V152.497C311.375 153.841 296.377 154.929 277.87 154.929C259.363 154.929 244.365 153.841 244.365 152.497V144.176H311.375Z" fill="#E59F39"/>
<path d="M287.129 154.833V144.176H311.375V152.497C311.375 153.606 301.124 154.534 287.129 154.833Z" fill="#EAB054"/>
<path d="M285.998 154.854C283.395 154.897 280.675 154.929 277.87 154.929C273.688 154.929 269.699 154.875 266.008 154.769V144.176H285.998V154.854Z" fill="#EAB054"/>
<path d="M264.664 154.726C252.728 154.352 244.365 153.488 244.365 152.486V144.165H264.664V154.726Z" fill="#EAB054"/>
<path d="M277.87 146.512C296.374 146.512 311.375 145.423 311.375 144.08C311.375 142.737 296.374 141.648 277.87 141.648C259.366 141.648 244.365 142.737 244.365 144.08C244.365 145.423 259.366 146.512 277.87 146.512Z" fill="#E59F39"/>
<path d="M277.87 145.766C293.104 145.766 305.455 145.011 305.455 144.08C305.455 143.149 293.104 142.395 277.87 142.395C262.635 142.395 250.285 143.149 250.285 144.08C250.285 145.011 262.635 145.766 277.87 145.766Z" fill="#F7CC7F"/>
<path d="M326.959 134.064L324.943 141.093C324.613 142.224 311.684 139.525 296.057 135.045C280.43 130.565 268.013 126.021 268.344 124.88L270.36 117.85L326.959 134.064Z" fill="#E59F39"/>
<path d="M303.897 137.2L306.479 128.197L326.959 134.064L324.943 141.094C324.677 142.032 315.791 140.347 303.897 137.2Z" fill="#EAB054"/>
<path d="M302.936 136.944C300.728 136.358 298.424 135.717 296.056 135.035C292.525 134.021 289.165 133.008 286.072 132.027L288.632 123.077L305.518 127.92L302.936 136.944Z" fill="#EAB054"/>
<path d="M284.942 131.685C274.947 128.485 268.099 125.733 268.333 124.88L270.35 117.85L287.491 122.757L284.942 131.685Z" fill="#EAB054"/>
<path d="M270.371 117.776C270.051 118.906 282.456 123.461 298.083 127.941C313.711 132.421 326.65 135.131 326.97 133.989C327.29 132.859 314.884 128.304 299.257 123.824C283.63 119.354 270.701 116.645 270.371 117.776Z" fill="#E59F39"/>
<path d="M275.373 119.216C275.149 120.005 285.4 123.632 298.275 127.323C311.15 131.013 321.764 133.36 321.988 132.571C322.212 131.781 311.961 128.155 299.086 124.464C286.211 120.773 275.597 118.426 275.373 119.216Z" fill="#F7CC7F"/>
<path d="M308.654 85.7105L310.798 92.6974C311.14 93.8281 298.819 98.6069 283.277 103.375C267.736 108.143 254.85 111.087 254.509 109.957L252.365 102.97L308.654 85.7105Z" fill="#E59F39"/>
<path d="M291.031 100.911L288.29 91.9614L308.664 85.7106L310.808 92.6975C311.085 93.6362 302.711 97.0603 291.031 100.911Z" fill="#EAB054"/>
<path d="M290.082 101.22C287.906 101.935 285.624 102.65 283.277 103.375C279.767 104.453 276.397 105.434 273.271 106.298L270.541 97.4017L287.341 92.2495L290.082 101.22Z" fill="#EAB054"/>
<path d="M272.13 106.618C262.007 109.381 254.764 110.81 254.497 109.967L252.353 102.981L269.41 97.7537L272.13 106.618Z" fill="#EAB054"/>
<path d="M252.333 102.895C252.674 104.026 265.56 101.071 281.102 96.3133C296.644 91.5451 308.964 86.7663 308.623 85.6356C308.281 84.5049 295.396 87.4597 279.854 92.2172C264.312 96.9853 251.992 101.775 252.333 102.895Z" fill="#E59F39"/>
<path d="M257.303 101.38C257.548 102.159 268.119 99.6202 280.919 95.6947C293.72 91.7693 303.907 87.9505 303.661 87.1718C303.416 86.3931 292.845 88.9319 280.045 92.8573C267.244 96.7721 257.068 100.591 257.303 101.38Z" fill="#F7CC7F"/>
<path d="M124.969 172.647C124.969 172.647 125.801 177.041 125.801 177.052C125.843 177.628 125.833 179.068 125.95 179.569C126.419 181.447 134.323 176.881 132.243 176.519C132.051 176.487 130.697 175.111 130.387 174.524C129.843 173.511 129.342 171.623 129.342 171.623L124.969 172.647Z" fill="#F7A491"/>
<path d="M131.849 176.241C131.849 176.241 129.812 176.743 128.766 176.849C127.732 176.956 126.398 175.345 125.652 175.644C124.83 175.975 124.382 181.095 124.382 181.095C124.382 181.095 137.417 181.692 140.5 180.839C141.727 180.497 135.903 177.788 131.849 176.241Z" fill="#F47458"/>
<path d="M143.146 172.444C143.146 172.444 143.978 176.839 143.978 176.849C144.02 177.425 144.01 178.865 144.127 179.367C144.596 181.244 152.351 176.977 150.271 176.615C150.079 176.583 148.874 174.908 148.554 174.321C148.01 173.308 147.508 171.42 147.508 171.42L143.146 172.444Z" fill="#F7A491"/>
<path d="M149.823 176.241C149.823 176.241 147.786 176.743 146.741 176.849C145.706 176.956 144.373 175.345 143.626 175.644C142.804 175.975 142.356 181.095 142.356 181.095C142.356 181.095 155.392 181.692 158.474 180.839C159.701 180.497 153.887 177.788 149.823 176.241Z" fill="#F47458"/>
<path d="M97.9384 128.453L121.651 122.949C121.651 122.949 132.286 120.133 134.857 123.44C137.428 126.736 148.329 172.295 148.329 172.295C148.329 172.295 142.708 172.785 142.334 172.54L129.171 149.179C127.923 146.96 127.091 144.518 126.739 141.99L125.801 135.301L116.147 138.118C116.147 138.118 105.021 140.56 100.498 137.755C95.9757 134.949 97.9384 128.453 97.9384 128.453Z" fill="#0E2E35"/>
<path d="M107.048 87.5667C107.422 87.5774 108.446 87.9294 109.95 90.7561C111.87 94.3616 114.665 105.274 114.665 105.274L106.302 108.378L105.224 106.106L103.454 88.5801C103.464 88.5694 106.942 87.5667 107.048 87.5667Z" fill="#EAB054"/>
<path d="M95.9975 85.9983C98.3869 85.9983 104.307 86.6916 107.049 87.5663C107.049 87.5663 109.065 104.847 105.235 117.978C104.382 120.922 105.95 130.16 105.95 130.16L81.1704 129.829C81.1704 129.829 84.1038 107.482 83.0051 103.866C81.8851 100.271 81.8638 87.6837 81.8638 87.6837C81.8638 87.6837 82.0344 87.6623 87.4319 86.7236C89.9493 86.297 93.4481 85.9983 95.9975 85.9983Z" fill="#F7CC7F"/>
<path d="M81.5963 89.604C83.911 88.74 85.0417 109.541 85.3617 118.106C89.4685 118.501 96.6154 118.106 98.3968 117.978C99.2395 117.914 101.17 117.21 102.002 117.104C102.856 116.997 103.634 116.933 104.05 117.008C104.2 117.04 108.477 118.778 108.85 119.162C109.309 119.632 110.536 120.837 110.323 121.349C110.12 121.861 107.965 119.909 107.965 119.909L106.909 119.322C108.221 120.592 110.717 122.277 110.355 122.885C110.003 123.482 107.752 121.776 106.141 120.613C107.517 121.85 109.224 124.069 108.84 124.421C108.488 124.73 106.536 122.16 104.456 121.424C103.688 121.146 102.92 121.904 102.312 122C101.864 122.064 101.181 122.213 100.744 122.085L98.6528 121.882C97.8848 121.946 97.7035 121.968 96.9248 122.138C96.0287 122.33 94.546 122.533 93.4047 122.81C86.8125 124.421 84.6151 125.157 82.5883 125.157C76.4655 125.146 76.1135 91.6521 81.5963 89.604Z" fill="#F7A491"/>
<path d="M77.1908 109.135C76.7534 100.367 76.8174 89.5505 81.7563 87.7051C83.6976 86.9798 87.1324 91.3532 86.5137 109.306C83.8897 109.53 80.0175 109.711 77.1908 109.135Z" fill="#EAB054"/>
<path d="M132.147 103.781L108.797 105.306C108.179 105.349 107.645 105.754 107.453 106.341L101.405 124.347L88.5301 125.189C88.1674 125.211 87.9008 125.52 87.9221 125.883C87.9434 126.245 88.2528 126.512 88.6154 126.491L125.246 124.101C126.249 124.037 127.123 123.387 127.475 122.437L133.662 105.839C134.068 104.794 133.257 103.706 132.147 103.781Z" fill="#F47458"/>
<path d="M120.51 114.906C120.467 115.706 119.859 116.325 119.155 116.293C118.451 116.25 117.917 115.567 117.96 114.767C118.003 113.967 118.611 113.349 119.315 113.381C120.03 113.413 120.563 114.095 120.51 114.906Z" fill="white"/>
<path d="M81.1812 129.274L107.027 124.816C107.027 124.816 118.206 123.109 120.766 126.416C123.337 129.712 130.793 172.508 130.793 172.508C130.793 172.508 125.172 172.998 124.799 172.753C124.511 172.561 117.705 158.299 114.644 151.878C113.673 149.84 112.99 147.675 112.617 145.445L111.635 139.621L108.382 140.741C102.665 142.704 96.5737 143.387 90.5788 142.651C88.0721 142.341 85.7253 141.797 84.2746 140.901C79.7518 138.075 81.1812 129.274 81.1812 129.274Z" fill="#184655"/>
<path d="M96.9678 82.8411L97.4692 86.5746C97.4692 86.5746 98.5999 91.9507 97.1492 92.9854C95.6985 94.0201 90.9836 86.4146 90.9836 86.4146L91.485 76.9529L96.9678 82.8411Z" fill="#F7A491"/>
<path d="M91.325 80.0356C92.5197 83.2571 95.3784 85.2411 97.3945 86.0092L96.9678 82.8411L91.485 76.9635L91.325 80.0356Z" fill="#F47458"/>
<path d="M96.6685 66.6805C99.7405 66.1898 102.493 68.6432 102.418 71.7153C102.386 73.0487 102.279 74.7128 102.002 76.5048C101.33 80.8143 98.3858 84.6011 96.4338 84.2704C94.4817 83.9291 89.5749 80.2169 90.4389 74.0834C90.9723 70.286 93.447 67.1925 96.6685 66.6805Z" fill="#F7A491"/>
<path d="M91.7944 74.8086C91.6344 75.758 90.8664 76.4193 90.0983 76.2806C89.3196 76.142 88.829 75.2673 88.989 74.3179C89.149 73.3686 89.917 72.7072 90.685 72.8459C91.4637 72.9845 91.9651 73.8592 91.7944 74.8086Z" fill="#F7A491"/>
<path d="M90.6954 72.8461C90.6954 72.8461 93.0528 73.4328 93.9275 71.9181C94.8022 70.4034 97.9276 67.15 101.906 68.494C105.885 69.8487 98.4077 65.2086 98.0876 65.2086C97.7676 65.2086 93.9489 65.1872 93.9489 65.1872C93.9489 65.1872 91.0048 67.598 90.8981 67.8647C90.7914 68.1313 89.9487 71.0221 89.9487 71.0221L90.6954 72.8461Z" fill="#0E2E35"/>
<path d="M206.222 181.293H264.911V159.927H206.222V181.293Z" fill="#50BFA5"/>
<path d="M206.222 165.791H264.912V163.039H206.222V165.791Z" fill="#96D9C9"/>
<path d="M206.222 171.161H264.912V168.408H206.222V171.161Z" fill="#96D9C9"/>
<path d="M206.222 176.531H264.912V173.778H206.222V176.531Z" fill="#96D9C9"/>
<path d="M206.222 181.292H264.912V178.54H206.222V181.292Z" fill="#96D9C9"/>
<path d="M228.074 181.293H240.277V159.927H228.074V181.293Z" fill="#F7CC7F"/>
<path d="M264.202 181.293H273.066V159.927H264.202V181.293Z" fill="#3C8F7C"/>
<path d="M330.138 180.988H5.81836V182.833H330.138V180.988Z" fill="#0E2E35"/>
<path opacity="0.8" d="M143.582 20.6098C142.985 18.0177 140.67 16.087 137.907 16.087C137.395 16.087 136.905 16.151 136.435 16.279C135.07 13.3562 132.105 11.3295 128.67 11.3295C127.784 11.3295 126.92 11.4682 126.12 11.7135C124.264 8.65208 120.904 6.60401 117.064 6.60401C112.499 6.60401 108.605 9.50544 107.122 13.5696C106.077 12.9829 104.872 12.6522 103.592 12.6522C99.5809 12.6522 96.3381 15.895 96.3381 19.9058C96.3381 20.1404 96.3488 20.3751 96.3701 20.6098H143.582Z" fill="white"/>
<path opacity="0.8" d="M164.852 49.3893C164.404 47.4266 162.655 45.9652 160.553 45.9652C160.169 45.9652 159.796 46.0185 159.444 46.1039C158.409 43.8958 156.169 42.3598 153.566 42.3598C152.894 42.3598 152.244 42.4664 151.636 42.6478C150.238 40.333 147.689 38.7757 144.787 38.7757C141.331 38.7757 138.387 40.9731 137.267 44.0452C136.478 43.6078 135.571 43.3518 134.6 43.3518C131.571 43.3518 129.107 45.8052 129.107 48.8453C129.107 49.0266 129.118 49.1973 129.128 49.3787H164.852V49.3893Z" fill="white"/>
<path opacity="0.8" d="M65.3831 45.3466C65.7777 43.6399 67.3031 42.3705 69.1272 42.3705C69.4578 42.3705 69.7885 42.4132 70.0979 42.4985C71.0046 40.5678 72.9566 39.2344 75.2287 39.2344C75.8154 39.2344 76.3807 39.3197 76.9141 39.4904C78.1301 37.4637 80.3488 36.1196 82.8876 36.1196C85.9064 36.1196 88.4771 38.029 89.4478 40.7171C90.1412 40.3331 90.9305 40.1091 91.7732 40.1091C94.4186 40.1091 96.5627 42.2532 96.5627 44.8986C96.5627 45.0586 96.552 45.2079 96.5413 45.3679H65.3831V45.3466Z" fill="white"/>
<path d="M131.325 69.7098L131.741 74.766L134.685 71.4592L144.189 63.6723L136.082 66.2217C136.082 66.2217 132.093 68.1631 131.912 68.4191C131.72 68.6858 131.325 69.7098 131.325 69.7098Z" fill="#50BFA5"/>
<path d="M127.016 67.5337L144.19 63.6723L131.325 69.7098L127.016 67.5337Z" fill="#96D9C9"/>
<path d="M137.929 73.4646L132.638 70.8192L144.191 63.6723L137.929 73.4646Z" fill="#96D9C9"/>
<path d="M129.319 72.5256C130.109 72.2269 130.695 72.1629 130.706 72.1629L130.663 71.8002C130.642 71.8002 130.023 71.8749 129.191 72.1843L129.319 72.5256Z" fill="#3C8F7C"/>
<path d="M120.842 102.436C121.535 101.796 122.164 101.113 122.708 100.399L123.007 100.623C122.452 101.359 121.812 102.063 121.098 102.713L120.842 102.436ZM124.138 98.0518C124.319 97.6678 124.49 97.2731 124.639 96.8677C124.81 96.4091 124.959 95.9397 125.076 95.449L125.439 95.545C125.311 96.0357 125.162 96.5264 124.991 96.9958C124.842 97.4118 124.671 97.8171 124.479 98.2118L124.138 98.0518ZM125.631 89.9555L126.004 89.9449C126.026 90.9476 125.994 91.8756 125.908 92.761L125.535 92.729C125.62 91.8543 125.652 90.9476 125.631 89.9555ZM125.108 84.4087L125.471 84.3554C125.631 85.4327 125.738 86.3181 125.823 87.1395L125.45 87.1715C125.364 86.3714 125.258 85.4861 125.108 84.4087ZM124.692 81.6246C124.543 80.6326 124.5 79.6832 124.554 78.8192L124.927 78.8405C124.874 79.6832 124.916 80.6006 125.066 81.5713V81.5926L124.703 81.6459L124.692 81.6246ZM125.151 76.0351C125.524 75.1284 126.068 74.3284 126.762 73.6777L127.018 73.9444C126.367 74.5631 125.855 75.3097 125.503 76.1738L125.151 76.0351Z" fill="#3C8F7C"/>
</svg>
