<svg width="352" height="196" viewBox="0 0 352 196" fill="none" xmlns="http://www.w3.org/2000/svg">
<path d="M21.5499 194.542C21.5499 194.542 -21.6203 148.191 14.2427 98.0139C46.0651 53.4969 83.1745 56.5345 110.398 74.602C121.989 82.2962 155.416 75.5477 183.872 30.2426C222.686 -31.5396 357.183 5.92806 332.653 100.98C320.79 146.973 368.774 148.649 344.316 194.627L21.5499 194.542Z" fill="#EBF3FA"/>
<path d="M225.595 145.095L228.905 145.64C229.163 145.683 229.406 145.798 229.592 145.955C229.779 146.113 229.922 146.328 229.979 146.557C229.994 146.629 230.008 146.7 230.008 146.772C230.008 146.843 230.008 146.901 229.994 146.972L222.371 193.151C222.271 193.753 221.655 194.154 220.981 194.068C220.953 194.068 220.938 194.068 220.91 194.054L217.6 193.51C217.571 193.51 217.557 193.495 217.528 193.495C216.855 193.352 216.396 192.779 216.497 192.177L224.119 145.998C224.133 145.926 224.148 145.869 224.176 145.798C224.205 145.726 224.234 145.669 224.277 145.597C224.406 145.396 224.606 145.239 224.836 145.153C225.065 145.081 225.323 145.052 225.595 145.095Z" fill="#FFB93E"/>
<path d="M226.44 168.522L222.357 193.252C222.271 193.782 221.655 194.126 220.982 194.054C220.953 194.054 220.939 194.054 220.91 194.04L217.6 193.496C217.571 193.496 217.557 193.481 217.528 193.481C216.855 193.338 216.397 192.822 216.483 192.292L220.065 170.6C221.856 170.542 224.377 170.127 226.44 168.522Z" fill="#FFA412"/>
<path d="M223.389 150.518L223.302 151.041L229.169 152.011L229.255 151.488L223.389 150.518Z" fill="#FFA412"/>
<path d="M223.091 152.293L223.004 152.816L228.871 153.783L228.958 153.26L223.091 152.293Z" fill="#FFA412"/>
<path d="M222.741 154.434L222.655 154.957L228.521 155.926L228.608 155.402L222.741 154.434Z" fill="#FFA412"/>
<path d="M222.21 157.676L222.124 158.199L227.991 159.167L228.077 158.644L222.21 157.676Z" fill="#FFA412"/>
<path d="M221.637 161.112L221.551 161.635L227.418 162.603L227.504 162.08L221.637 161.112Z" fill="#FFA412"/>
<path d="M220.756 166.419L220.67 166.942L226.537 167.908L226.623 167.385L220.756 166.419Z" fill="#FFA412"/>
<path d="M219.946 171.387L219.86 171.91L225.726 172.88L225.813 172.357L219.946 171.387Z" fill="#FFA412"/>
<path d="M219.22 175.793L219.134 176.316L225.001 177.284L225.087 176.761L219.22 175.793Z" fill="#FFA412"/>
<path d="M223.659 148.821L223.573 149.344L229.44 150.311L229.526 149.788L223.659 148.821Z" fill="#FFA412"/>
<path d="M223.858 147.691L223.772 148.214L229.639 149.182L229.725 148.659L223.858 147.691Z" fill="#FFA412"/>
<path d="M224.026 146.616L223.94 147.139L229.807 148.106L229.893 147.583L224.026 146.616Z" fill="#FFA412"/>
<path d="M224.077 146.342L229.937 147.302L229.994 146.972C230.008 146.901 230.008 146.843 230.008 146.772L224.191 145.812C224.163 145.869 224.148 145.941 224.134 146.012L224.077 146.342Z" fill="#FFA412"/>
<path d="M224.277 145.626L229.965 146.557C229.908 146.328 229.765 146.113 229.578 145.955L224.836 145.182C224.607 145.267 224.406 145.425 224.277 145.626Z" fill="#FFA412"/>
<path d="M231.598 145.095L234.908 145.64C235.166 145.683 235.409 145.798 235.596 145.955C235.782 146.113 235.925 146.328 235.983 146.557C235.997 146.629 236.011 146.7 236.011 146.772C236.011 146.843 236.011 146.901 235.997 146.972L228.374 193.151C228.274 193.753 227.658 194.154 226.985 194.068C226.956 194.068 226.942 194.068 226.913 194.054L223.603 193.51C223.574 193.51 223.56 193.495 223.532 193.495C222.858 193.352 222.414 192.779 222.5 192.177L230.122 145.998C230.137 145.926 230.151 145.869 230.18 145.798C230.208 145.726 230.237 145.669 230.28 145.597C230.409 145.396 230.61 145.239 230.839 145.153C231.082 145.081 231.326 145.052 231.598 145.095Z" fill="#FFB93E"/>
<path d="M232.443 168.522L228.36 193.252C228.274 193.782 227.658 194.126 226.984 194.054C226.956 194.054 226.941 194.054 226.913 194.04L223.603 193.496C223.574 193.496 223.56 193.481 223.531 193.481C222.858 193.338 222.399 192.822 222.485 192.292L226.067 170.6C227.858 170.542 230.38 170.127 232.443 168.522Z" fill="#FFA412"/>
<path d="M229.395 150.522L229.309 151.045L235.175 152.015L235.262 151.492L229.395 150.522Z" fill="#FFA412"/>
<path d="M229.105 152.288L229.019 152.811L234.886 153.778L234.972 153.255L229.105 152.288Z" fill="#FFA412"/>
<path d="M228.747 154.438L228.661 154.961L234.528 155.929L234.614 155.406L228.747 154.438Z" fill="#FFA412"/>
<path d="M228.213 157.66L228.126 158.183L233.993 159.151L234.08 158.628L228.213 157.66Z" fill="#FFA412"/>
<path d="M227.643 161.116L227.557 161.639L233.424 162.607L233.51 162.084L227.643 161.116Z" fill="#FFA412"/>
<path d="M226.762 166.444L226.676 166.967L232.542 167.936L232.629 167.412L226.762 166.444Z" fill="#FFA412"/>
<path d="M225.946 171.362L225.86 171.885L231.727 172.853L231.813 172.33L225.946 171.362Z" fill="#FFA412"/>
<path d="M225.22 175.79L225.134 176.313L231.001 177.281L231.087 176.758L225.22 175.79Z" fill="#FFA412"/>
<path d="M229.668 148.831L229.582 149.355L235.448 150.323L235.534 149.8L229.668 148.831Z" fill="#FFA412"/>
<path d="M229.873 147.717L229.787 148.24L235.654 149.207L235.74 148.684L229.873 147.717Z" fill="#FFA412"/>
<path d="M230.032 146.619L229.946 147.143L235.813 148.109L235.899 147.586L230.032 146.619Z" fill="#FFA412"/>
<path d="M230.079 146.342L235.939 147.302L235.997 146.972C236.011 146.901 236.011 146.843 236.011 146.772L230.194 145.812C230.165 145.869 230.151 145.941 230.137 146.012L230.079 146.342Z" fill="#FFA412"/>
<path d="M230.294 145.626L235.983 146.557C235.925 146.328 235.782 146.113 235.596 145.955L230.853 145.182C230.624 145.267 230.423 145.425 230.294 145.626Z" fill="#FFA412"/>
<path d="M209.633 189.426V192.779C209.633 193.051 209.561 193.295 209.432 193.495C209.303 193.71 209.117 193.882 208.902 193.983C208.83 194.011 208.773 194.04 208.701 194.054C208.63 194.069 208.572 194.069 208.501 194.069L161.706 193.954C161.104 193.954 160.602 193.41 160.574 192.722C160.574 192.693 160.574 192.679 160.574 192.65V189.297C160.574 189.269 160.574 189.254 160.574 189.226C160.602 188.552 161.104 187.994 161.706 188.008L208.501 188.122C208.572 188.122 208.63 188.137 208.701 188.137C208.773 188.151 208.845 188.18 208.902 188.208C209.117 188.309 209.303 188.481 209.432 188.696C209.561 188.911 209.633 189.154 209.633 189.426Z" fill="#FFB93E"/>
<path d="M186.636 194.026L161.562 193.968C161.018 193.968 160.588 193.424 160.559 192.736C160.559 192.707 160.559 192.693 160.559 192.664V189.312C160.559 189.283 160.559 189.269 160.559 189.24C160.588 188.567 161.032 188.008 161.577 188.022L183.57 188.079C183.914 189.827 184.731 192.249 186.636 194.026Z" fill="#FFA412"/>
<path d="M203.411 188.117L203.397 194.063L203.927 194.064L203.941 188.118L203.411 188.117Z" fill="#FFA412"/>
<path d="M201.601 188.117L201.587 194.063L202.117 194.064L202.131 188.118L201.601 188.117Z" fill="#FFA412"/>
<path d="M199.448 188.102L199.432 194.048L199.962 194.049L199.978 188.103L199.448 188.102Z" fill="#FFA412"/>
<path d="M196.131 188.095L196.117 194.041L196.647 194.042L196.661 188.096L196.131 188.095Z" fill="#FFA412"/>
<path d="M192.64 188.083L192.626 194.029L193.156 194.031L193.17 188.085L192.64 188.083Z" fill="#FFA412"/>
<path d="M187.274 188.079L187.26 194.025L187.79 194.026L187.804 188.08L187.274 188.079Z" fill="#FFA412"/>
<path d="M182.248 188.059L182.234 194.005L182.764 194.006L182.778 188.06L182.248 188.059Z" fill="#FFA412"/>
<path d="M177.76 188.062L177.745 194.008L178.275 194.009L178.291 188.063L177.76 188.062Z" fill="#FFA412"/>
<path d="M205.121 188.115L205.107 194.061L205.637 194.062L205.651 188.116L205.121 188.115Z" fill="#FFA412"/>
<path d="M206.25 188.118L206.237 194.064L206.767 194.065L206.78 188.119L206.25 188.118Z" fill="#FFA412"/>
<path d="M207.341 188.124L207.327 194.071L207.857 194.072L207.871 188.126L207.341 188.124Z" fill="#FFA412"/>
<path d="M208.172 188.137L208.158 194.083H208.487C208.559 194.083 208.616 194.083 208.688 194.069L208.702 188.166C208.631 188.151 208.573 188.151 208.502 188.151L208.172 188.137Z" fill="#FFA412"/>
<path d="M208.903 188.223L208.888 193.997C209.103 193.897 209.289 193.725 209.418 193.51L209.433 188.71C209.304 188.481 209.118 188.323 208.903 188.223Z" fill="#FFA412"/>
<path d="M204.632 183.48V186.833C204.632 187.105 204.561 187.349 204.432 187.549C204.303 187.764 204.117 187.936 203.902 188.036C203.83 188.065 203.773 188.094 203.701 188.108C203.63 188.122 203.572 188.122 203.501 188.122L156.705 188.008C156.104 188.008 155.602 187.463 155.573 186.776C155.573 186.747 155.573 186.733 155.573 186.704V183.351C155.573 183.322 155.573 183.308 155.573 183.279C155.602 182.592 156.104 182.047 156.705 182.062L203.501 182.176C203.529 182.176 203.558 182.176 203.587 182.176C203.601 182.176 203.615 182.176 203.63 182.176C203.644 182.176 203.658 182.176 203.672 182.176C203.687 182.176 203.687 182.176 203.701 182.176C203.773 182.191 203.844 182.219 203.902 182.248C203.916 182.248 203.916 182.262 203.93 182.262C203.945 182.262 203.945 182.277 203.959 182.277C203.973 182.291 204.002 182.291 204.016 182.305C204.031 182.305 204.045 182.32 204.045 182.32C204.059 182.32 204.059 182.334 204.074 182.334C204.088 182.348 204.102 182.362 204.131 182.377C204.145 182.391 204.174 182.405 204.188 182.42C204.203 182.434 204.217 182.448 204.231 182.463C204.246 182.477 204.246 182.477 204.26 182.491C204.289 182.52 204.317 182.549 204.346 182.592C204.36 182.606 204.36 182.606 204.375 182.62C204.389 182.635 204.389 182.635 204.403 182.649C204.418 182.663 204.432 182.692 204.446 182.721C204.561 182.964 204.632 183.208 204.632 183.48Z" fill="#FFB93E"/>
<path d="M181.65 188.065L156.576 188.008C156.032 188.008 155.602 187.463 155.573 186.776C155.573 186.747 155.573 186.733 155.573 186.704V183.351C155.573 183.322 155.573 183.308 155.573 183.279C155.602 182.592 156.046 182.047 156.591 182.062L178.584 182.119C178.599 182.162 178.599 182.219 178.613 182.262C178.971 183.996 179.788 186.346 181.65 188.065Z" fill="#FFA412"/>
<path d="M198.412 182.156L198.398 188.102L198.928 188.103L198.942 182.157L198.412 182.156Z" fill="#FFA412"/>
<path d="M196.616 182.156L196.602 188.102L197.132 188.103L197.146 182.157L196.616 182.156Z" fill="#FFA412"/>
<path d="M194.447 182.156L194.433 188.102L194.963 188.103L194.978 182.157L194.447 182.156Z" fill="#FFA412"/>
<path d="M191.147 182.148L191.133 188.094L191.663 188.096L191.677 182.149L191.147 182.148Z" fill="#FFA412"/>
<path d="M187.64 182.137L187.627 188.083L188.157 188.084L188.17 182.138L187.64 182.137Z" fill="#FFA412"/>
<path d="M182.275 182.118L182.26 188.064L182.79 188.065L182.806 182.119L182.275 182.118Z" fill="#FFA412"/>
<path d="M177.264 182.112L177.25 188.058L177.78 188.059L177.794 182.113L177.264 182.112Z" fill="#FFA412"/>
<path d="M172.774 182.101L172.762 188.047L173.292 188.048L173.305 182.102L172.774 182.101Z" fill="#FFA412"/>
<path d="M200.122 182.168L200.108 188.115L200.638 188.116L200.652 182.17L200.122 182.168Z" fill="#FFA412"/>
<path d="M201.265 182.171L201.251 188.117L201.781 188.118L201.795 182.172L201.265 182.171Z" fill="#FFA412"/>
<path d="M202.356 182.164L202.342 188.11L202.872 188.111L202.886 182.165L202.356 182.164Z" fill="#FFA412"/>
<path d="M203.172 182.176L203.157 188.122H203.487C203.558 188.122 203.616 188.122 203.687 188.108L203.702 182.205C203.63 182.191 203.573 182.191 203.501 182.191L203.172 182.176Z" fill="#FFA412"/>
<path d="M203.916 182.262L203.902 188.037C204.117 187.936 204.303 187.764 204.432 187.549L204.446 182.75C204.317 182.535 204.131 182.363 203.916 182.262Z" fill="#FFA412"/>
<path d="M207.068 177.677V181.03C207.068 181.302 206.996 181.546 206.867 181.746C206.738 181.961 206.552 182.133 206.337 182.234C206.266 182.262 206.208 182.291 206.137 182.305C206.065 182.32 206.008 182.32 205.936 182.32L159.141 182.205C158.955 182.205 158.768 182.148 158.625 182.062C158.296 181.861 158.052 181.489 158.023 181.044C158.023 181.03 158.023 181.001 158.023 180.987C158.023 180.958 158.023 180.944 158.023 180.915V177.563C158.023 177.534 158.023 177.52 158.023 177.491C158.052 176.818 158.553 176.259 159.155 176.273L205.95 176.388C206.022 176.388 206.079 176.402 206.151 176.402C206.223 176.416 206.294 176.445 206.352 176.474C206.566 176.574 206.753 176.746 206.882 176.961C206.996 177.162 207.068 177.419 207.068 177.677Z" fill="#FFB93E"/>
<path d="M184.071 182.276L158.997 182.219C158.826 182.219 158.668 182.162 158.539 182.076C158.238 181.875 158.037 181.503 157.995 181.059C157.995 181.044 157.995 181.016 157.995 181.001C157.995 180.973 157.995 180.958 157.995 180.93V177.577C157.995 177.548 157.995 177.534 157.995 177.505C158.023 176.832 158.467 176.273 159.012 176.287L181.005 176.345C181.349 178.05 182.123 180.385 183.914 182.147C183.971 182.176 184.028 182.233 184.071 182.276Z" fill="#FFA412"/>
<path d="M208.2 171.745V175.098C208.2 175.37 208.128 175.614 208 175.815C207.871 176.029 207.684 176.201 207.469 176.302C207.398 176.33 207.34 176.359 207.269 176.373C207.197 176.388 207.14 176.388 207.068 176.388L160.273 176.273C159.671 176.273 159.17 175.729 159.141 175.041C159.141 175.012 159.141 174.998 159.141 174.969V171.616C159.141 171.588 159.141 171.573 159.141 171.545C159.17 170.914 159.6 170.399 160.144 170.327C160.187 170.327 160.23 170.313 160.273 170.313L207.068 170.427C207.14 170.427 207.197 170.442 207.269 170.442C207.34 170.456 207.412 170.485 207.469 170.513C207.684 170.613 207.871 170.785 208 171C208.128 171.23 208.2 171.473 208.2 171.745Z" fill="#FFB93E"/>
<path d="M185.204 176.345L160.13 176.287C159.586 176.287 159.156 175.743 159.127 175.055C159.127 175.027 159.127 175.012 159.127 174.984V171.631C159.127 171.602 159.127 171.588 159.127 171.559C159.156 170.929 159.543 170.413 160.015 170.341C160.058 170.341 160.087 170.327 160.13 170.327L182.123 170.384C182.123 170.384 182.123 170.384 182.123 170.399C182.496 172.147 183.298 174.568 185.204 176.345Z" fill="#FFA412"/>
<path d="M204.761 165.799V169.152C204.761 169.424 204.69 169.668 204.561 169.869C204.432 170.084 204.246 170.255 204.031 170.356C203.959 170.384 203.902 170.413 203.83 170.427C203.801 170.427 203.787 170.442 203.758 170.442C203.744 170.442 203.73 170.442 203.715 170.442C203.701 170.442 203.687 170.442 203.672 170.442C203.658 170.442 203.63 170.442 203.615 170.442L156.82 170.327C156.218 170.327 155.717 169.783 155.688 169.095C155.688 169.066 155.688 169.052 155.688 169.023V165.671C155.688 165.642 155.688 165.628 155.688 165.599C155.688 165.585 155.688 165.556 155.688 165.542C155.731 164.997 156.089 164.539 156.533 164.41C156.548 164.41 156.562 164.41 156.562 164.395C156.648 164.381 156.72 164.367 156.806 164.367L203.601 164.481C203.629 164.481 203.672 164.481 203.701 164.481C203.715 164.481 203.73 164.481 203.744 164.481C203.758 164.481 203.773 164.481 203.801 164.496C203.873 164.51 203.945 164.539 204.002 164.567C204.217 164.668 204.403 164.839 204.532 165.054C204.69 165.284 204.761 165.542 204.761 165.799Z" fill="#FFB93E"/>
<path d="M181.779 170.399L156.705 170.341C156.161 170.341 155.731 169.797 155.702 169.109C155.702 169.08 155.702 169.066 155.702 169.037V165.685C155.702 165.656 155.702 165.642 155.702 165.613C155.702 165.599 155.702 165.57 155.702 165.556C155.745 164.997 156.075 164.538 156.49 164.424C156.505 164.424 156.519 164.409 156.533 164.409C156.591 164.395 156.648 164.395 156.705 164.395L178.699 164.452C178.699 164.467 178.699 164.481 178.713 164.495C179.071 166.229 179.888 168.622 181.779 170.399C181.765 170.384 181.779 170.399 181.779 170.399Z" fill="#FFA412"/>
<path d="M204.675 159.896V163.249C204.675 163.521 204.604 163.765 204.475 163.965C204.346 164.18 204.16 164.352 203.945 164.452C203.887 164.481 203.844 164.495 203.787 164.51C203.773 164.51 203.758 164.524 203.744 164.524C203.672 164.538 203.615 164.538 203.544 164.538L156.748 164.424C156.705 164.424 156.648 164.424 156.605 164.409C156.591 164.409 156.562 164.409 156.548 164.395C156.032 164.295 155.645 163.793 155.616 163.192C155.616 163.163 155.616 163.149 155.616 163.12V159.767C155.616 159.739 155.616 159.724 155.616 159.696C155.645 159.008 156.147 158.463 156.748 158.478L203.544 158.592C203.572 158.592 203.601 158.592 203.629 158.592C203.644 158.592 203.658 158.592 203.672 158.592C203.687 158.592 203.701 158.592 203.715 158.592C203.73 158.592 203.73 158.592 203.744 158.592C203.816 158.607 203.887 158.635 203.945 158.664C203.959 158.664 203.959 158.678 203.973 158.678C203.988 158.678 203.988 158.693 204.002 158.693C204.016 158.707 204.045 158.707 204.059 158.721C204.074 158.736 204.102 158.75 204.117 158.764C204.131 158.779 204.145 158.793 204.174 158.807C204.188 158.822 204.217 158.836 204.231 158.85C204.246 158.865 204.26 158.879 204.274 158.893C204.289 158.908 204.289 158.908 204.303 158.922C204.332 158.951 204.36 158.979 204.389 159.022C204.403 159.037 204.403 159.037 204.418 159.051C204.432 159.065 204.432 159.065 204.446 159.079C204.461 159.094 204.475 159.122 204.489 159.151C204.604 159.38 204.675 159.638 204.675 159.896Z" fill="#FFB93E"/>
<path d="M181.693 164.496L156.619 164.438C156.605 164.438 156.576 164.438 156.562 164.438C156.533 164.438 156.519 164.438 156.49 164.424C156.003 164.352 155.63 163.836 155.602 163.206C155.602 163.177 155.602 163.163 155.602 163.134V159.782C155.602 159.753 155.602 159.739 155.602 159.71C155.63 159.022 156.075 158.478 156.619 158.492L178.613 158.549C178.627 158.592 178.627 158.65 178.641 158.693C178.999 160.412 179.816 162.733 181.636 164.453C181.664 164.467 181.679 164.481 181.693 164.496Z" fill="#FFA412"/>
<path d="M207.111 154.108V157.461C207.111 157.733 207.04 157.976 206.911 158.177C206.782 158.392 206.596 158.564 206.381 158.664C206.309 158.693 206.252 158.721 206.18 158.736C206.108 158.75 206.051 158.75 205.98 158.75L159.184 158.635C158.998 158.635 158.812 158.578 158.669 158.492C158.339 158.292 158.095 157.919 158.067 157.475C158.067 157.461 158.067 157.432 158.067 157.418C158.067 157.389 158.067 157.375 158.067 157.346V153.993C158.067 153.965 158.067 153.95 158.067 153.922C158.095 153.234 158.597 152.689 159.199 152.704L205.994 152.818C206.065 152.818 206.123 152.833 206.194 152.833C206.266 152.847 206.338 152.876 206.395 152.904C206.61 153.005 206.796 153.177 206.925 153.391C207.04 153.592 207.111 153.85 207.111 154.108Z" fill="#FFB93E"/>
<path d="M184.114 158.707L159.04 158.65C158.868 158.65 158.711 158.593 158.582 158.507C158.281 158.306 158.08 157.933 158.037 157.489C158.037 157.475 158.037 157.446 158.037 157.432C158.037 157.403 158.037 157.389 158.037 157.36V154.008C158.037 153.979 158.037 153.965 158.037 153.936C158.066 153.248 158.51 152.704 159.055 152.718L181.048 152.775C181.392 154.48 182.166 156.816 183.957 158.578C184.014 158.607 184.071 158.664 184.114 158.707Z" fill="#FFA412"/>
<path d="M210.937 148.176V151.529C210.937 151.801 210.865 152.045 210.736 152.245C210.607 152.46 210.421 152.632 210.206 152.732C210.134 152.761 210.077 152.79 210.005 152.804C209.934 152.818 209.876 152.818 209.805 152.818L163.01 152.704C162.408 152.704 161.906 152.159 161.878 151.472C161.878 151.443 161.878 151.429 161.878 151.4V148.047C161.878 148.019 161.878 148.004 161.878 147.976C161.906 147.345 162.336 146.829 162.881 146.758C162.924 146.758 162.967 146.743 163.01 146.743L209.805 146.858C209.876 146.858 209.934 146.872 210.005 146.872C210.077 146.887 210.149 146.915 210.206 146.944C210.421 147.044 210.607 147.216 210.736 147.431C210.865 147.66 210.937 147.918 210.937 148.176Z" fill="#FFB93E"/>
<path d="M187.955 152.775L162.881 152.718C162.336 152.718 161.906 152.173 161.878 151.486C161.878 151.457 161.878 151.443 161.878 151.414V148.061C161.878 148.033 161.878 148.018 161.878 147.99C161.906 147.359 162.293 146.843 162.766 146.772C162.809 146.772 162.852 146.758 162.881 146.758L184.874 146.815C184.874 146.815 184.874 146.815 184.874 146.829C185.232 148.577 186.049 150.999 187.955 152.775Z" fill="#FFA412"/>
<path d="M204.804 142.23V145.583C204.804 145.855 204.733 146.099 204.604 146.299C204.475 146.514 204.289 146.686 204.074 146.786C204.002 146.815 203.945 146.844 203.873 146.858C203.844 146.858 203.83 146.872 203.801 146.872C203.787 146.872 203.773 146.872 203.744 146.872C203.73 146.872 203.73 146.872 203.715 146.872C203.701 146.872 203.672 146.872 203.658 146.872L156.863 146.758C156.261 146.758 155.76 146.213 155.731 145.525C155.731 145.497 155.731 145.482 155.731 145.454V142.101C155.731 142.072 155.731 142.058 155.731 142.029C155.76 141.356 156.261 140.797 156.863 140.812L203.658 140.926C203.672 140.926 203.701 140.926 203.715 140.926C203.758 140.926 203.816 140.941 203.859 140.941C203.93 140.955 204.002 140.983 204.059 141.012C204.088 141.026 204.131 141.041 204.16 141.069C204.174 141.084 204.203 141.098 204.217 141.112C204.231 141.127 204.26 141.141 204.274 141.155C204.274 141.155 204.274 141.155 204.289 141.155C204.303 141.17 204.317 141.184 204.346 141.198C204.389 141.227 204.418 141.27 204.461 141.313C204.475 141.327 204.489 141.342 204.489 141.356C204.489 141.37 204.504 141.37 204.504 141.385C204.518 141.399 204.532 141.413 204.532 141.428C204.546 141.456 204.561 141.471 204.575 141.499C204.733 141.714 204.804 141.958 204.804 142.23Z" fill="#FFB93E"/>
<path d="M181.822 146.829L156.748 146.772C156.203 146.772 155.773 146.228 155.745 145.54C155.745 145.511 155.745 145.497 155.745 145.468V142.115C155.745 142.087 155.745 142.072 155.745 142.044C155.773 141.37 156.217 140.812 156.762 140.826L178.755 140.883C178.77 140.926 178.77 140.969 178.784 141.027C179.142 142.746 179.959 145.081 181.822 146.829C181.807 146.815 181.822 146.829 181.822 146.829Z" fill="#FFA412"/>
<path d="M208.257 136.441V139.794C208.257 140.066 208.185 140.31 208.056 140.51C207.927 140.725 207.741 140.897 207.526 140.998C207.455 141.026 207.397 141.055 207.326 141.069C207.254 141.084 207.197 141.084 207.125 141.084L160.33 140.969C160.144 140.969 159.972 140.912 159.828 140.826C159.485 140.625 159.241 140.238 159.212 139.794C159.212 139.78 159.212 139.765 159.212 139.737C159.212 139.708 159.212 139.694 159.212 139.665V136.312C159.212 136.284 159.212 136.269 159.212 136.241C159.241 135.61 159.671 135.094 160.215 135.023C160.258 135.023 160.301 135.008 160.344 135.008L207.139 135.123C207.211 135.123 207.268 135.137 207.34 135.137C207.412 135.152 207.483 135.18 207.541 135.209C207.755 135.309 207.942 135.481 208.071 135.696C208.185 135.925 208.257 136.169 208.257 136.441Z" fill="#FFB93E"/>
<path d="M185.275 141.026L160.201 140.969C160.043 140.969 159.886 140.926 159.757 140.826C159.456 140.625 159.241 140.238 159.198 139.794C159.198 139.78 159.198 139.765 159.198 139.737C159.198 139.708 159.198 139.694 159.198 139.665V136.312C159.198 136.284 159.198 136.269 159.198 136.241C159.227 135.61 159.614 135.094 160.086 135.023C160.129 135.023 160.158 135.008 160.201 135.008L182.195 135.066C182.195 135.066 182.195 135.066 182.195 135.08C182.538 136.785 183.312 139.121 185.117 140.883C185.175 140.94 185.218 140.983 185.275 141.026Z" fill="#FFA412"/>
<path d="M204.833 130.495V133.848C204.833 134.12 204.762 134.364 204.633 134.565C204.504 134.779 204.317 134.951 204.102 135.052C204.031 135.08 203.974 135.109 203.902 135.123C203.873 135.123 203.859 135.138 203.83 135.138C203.816 135.138 203.802 135.138 203.787 135.138C203.773 135.138 203.759 135.138 203.744 135.138C203.73 135.138 203.701 135.138 203.687 135.138L156.892 135.023C156.29 135.023 155.789 134.479 155.76 133.791C155.76 133.762 155.76 133.748 155.76 133.719V130.366C155.76 130.338 155.76 130.323 155.76 130.295C155.789 129.621 156.29 129.063 156.892 129.077L203.687 129.192C203.759 129.192 203.816 129.206 203.888 129.206C203.959 129.22 204.031 129.249 204.088 129.278C204.303 129.378 204.489 129.55 204.618 129.765C204.762 129.98 204.833 130.223 204.833 130.495Z" fill="#FFB93E"/>
<path d="M181.837 135.095L156.763 135.037C156.218 135.037 155.789 134.493 155.76 133.805C155.76 133.777 155.76 133.762 155.76 133.734V130.381C155.76 130.352 155.76 130.338 155.76 130.309C155.789 129.636 156.233 129.077 156.777 129.091L178.771 129.149C179.114 130.882 179.931 133.304 181.837 135.095C181.837 135.08 181.837 135.08 181.837 135.095Z" fill="#FFA412"/>
<path d="M200.842 176.372L200.828 182.319L201.359 182.32L201.373 176.374L200.842 176.372Z" fill="#FFA412"/>
<path d="M199.045 176.373L199.033 182.319L199.563 182.321L199.575 176.374L199.045 176.373Z" fill="#FFA412"/>
<path d="M196.877 176.359L196.864 182.305L197.394 182.306L197.407 176.36L196.877 176.359Z" fill="#FFA412"/>
<path d="M193.576 176.351L193.562 182.297L194.092 182.298L194.106 176.352L193.576 176.351Z" fill="#FFA412"/>
<path d="M190.071 176.339L190.057 182.285L190.587 182.287L190.601 176.341L190.071 176.339Z" fill="#FFA412"/>
<path d="M184.705 176.335L184.691 182.281L185.221 182.282L185.235 176.336L184.705 176.335Z" fill="#FFA412"/>
<path d="M179.678 176.315L179.665 182.261L180.196 182.262L180.208 176.316L179.678 176.315Z" fill="#FFA412"/>
<path d="M175.204 176.304L175.19 182.25L175.72 182.251L175.735 176.305L175.204 176.304Z" fill="#FFA412"/>
<path d="M202.552 176.371L202.537 182.317L203.068 182.318L203.082 176.372L202.552 176.371Z" fill="#FFA412"/>
<path d="M203.68 176.374L203.668 182.32L204.198 182.321L204.21 176.375L203.68 176.374Z" fill="#FFA412"/>
<path d="M204.786 176.381L204.771 182.327L205.302 182.328L205.316 176.382L204.786 176.381Z" fill="#FFA412"/>
<path d="M205.607 176.388L205.593 182.334H205.922C205.994 182.334 206.051 182.334 206.123 182.32L206.137 176.417C206.065 176.402 206.008 176.402 205.937 176.402L205.607 176.388Z" fill="#FFA412"/>
<path d="M206.338 176.474L206.324 182.248C206.539 182.148 206.725 181.976 206.854 181.761L206.868 176.961C206.739 176.746 206.553 176.574 206.338 176.474Z" fill="#FFA412"/>
<path d="M185.844 170.395L185.83 176.341L186.36 176.342L186.374 170.396L185.844 170.395Z" fill="#FFA412"/>
<path d="M180.819 170.375L180.805 176.321L181.335 176.322L181.349 170.376L180.819 170.375Z" fill="#FFA412"/>
<path d="M176.33 170.364L176.316 176.31L176.847 176.311L176.861 170.365L176.33 170.364Z" fill="#FFA412"/>
<path d="M204.203 176.388L204.217 170.442H203.744C203.773 170.442 203.787 170.442 203.816 170.427L203.83 164.524C203.802 164.524 203.759 164.51 203.73 164.51L203.744 158.75H203.945L203.931 164.453C204.145 164.352 204.332 164.18 204.461 163.965L204.475 159.166C204.375 158.979 204.217 158.836 204.06 158.736H204.246L204.26 152.79H203.73L203.716 158.607C203.658 158.592 203.601 158.592 203.544 158.592H203.214L203.2 164.539H203.3L203.286 170.442H203.615C203.63 170.442 203.658 170.442 203.673 170.442L203.658 176.373L204.203 176.388Z" fill="#FFA412"/>
<path d="M204.821 170.434L204.807 176.38L205.337 176.381L205.351 170.435L204.821 170.434Z" fill="#FFA412"/>
<path d="M205.912 170.441L205.896 176.387L206.427 176.388L206.442 170.442L205.912 170.441Z" fill="#FFA412"/>
<path d="M206.739 170.442L206.725 176.388H207.054C207.126 176.388 207.183 176.388 207.255 176.373L207.269 170.47C207.197 170.456 207.14 170.456 207.068 170.456L206.739 170.442Z" fill="#FFA412"/>
<path d="M207.47 170.542L207.455 176.316C207.67 176.216 207.856 176.044 207.985 175.829L208 171.029C207.871 170.8 207.684 170.628 207.47 170.542Z" fill="#FFA412"/>
<path d="M199.059 170.442L199.073 164.496H198.973L198.988 158.592H198.457L198.443 164.539H198.543L198.529 170.427H198.013L197.999 176.373H198.529L198.543 170.442H199.059Z" fill="#FFA412"/>
<path d="M195.118 164.481H195.018L195.032 158.592L194.488 158.578V164.524H194.588L194.574 170.427H194.703L194.688 176.359H195.218L195.233 170.413H195.104L195.118 164.481Z" fill="#FFA412"/>
<path d="M204.045 164.596L204.031 170.37C204.246 170.27 204.432 170.098 204.561 169.883L204.575 165.083C204.447 164.868 204.26 164.696 204.045 164.596Z" fill="#FFA412"/>
<path d="M191.723 158.578H191.179V164.524H191.279L191.265 170.413H191.207L191.193 176.359H191.723L191.738 170.427H191.795L191.809 164.481H191.709L191.723 158.578Z" fill="#FFA412"/>
<path d="M188.212 158.564H187.682L187.667 164.51H187.768V170.413H188.298V164.467H188.212V158.564Z" fill="#FFA412"/>
<path d="M182.854 158.564L182.324 158.55L182.31 164.496H182.41L182.396 170.399H182.926L182.94 164.453H182.84L182.854 158.564Z" fill="#FFA412"/>
<path d="M177.825 158.55H177.295V164.481H177.381V170.384H177.911L177.925 164.453L177.825 164.438V158.55Z" fill="#FFA412"/>
<path d="M173.34 158.535H172.81L172.796 164.481H172.896V170.37H173.426V164.438H173.34V158.535Z" fill="#FFA412"/>
<path d="M200.707 158.607L200.162 158.592V164.539H200.263L200.248 170.427H200.177L200.162 176.373H200.693L200.707 170.442H200.779L200.793 164.496H200.693L200.707 158.607Z" fill="#FFA412"/>
<path d="M201.839 158.607H201.409V152.804H200.879V158.75H201.294V164.538H201.395L201.38 170.442H201.911L201.925 164.495H201.825L201.839 158.607Z" fill="#FFA412"/>
<path d="M199.09 152.802L199.076 158.748L199.606 158.749L199.62 152.803L199.09 152.802Z" fill="#FFA412"/>
<path d="M196.91 158.592H196.652L196.638 164.539H196.738L196.724 170.427H197.268V164.496H197.182V158.736H197.44L197.454 152.79H196.924L196.91 158.592Z" fill="#FFA412"/>
<path d="M193.622 152.779L193.606 158.726L194.136 158.727L194.152 152.781L193.622 152.779Z" fill="#FFA412"/>
<path d="M190.116 152.768L190.101 158.714L190.632 158.716L190.646 152.77L190.116 152.768Z" fill="#FFA412"/>
<path d="M184.749 152.764L184.735 158.71L185.265 158.711L185.279 152.765L184.749 152.764Z" fill="#FFA412"/>
<path d="M179.723 152.744L179.71 158.69L180.24 158.691L180.253 152.745L179.723 152.744Z" fill="#FFA412"/>
<path d="M175.25 152.732L175.235 158.679L175.766 158.68L175.78 152.734L175.25 152.732Z" fill="#FFA412"/>
<path d="M202.583 158.607H202.397L202.383 164.553H202.483L202.469 170.442H201.967V176.373H202.498V170.442H202.999L203.013 164.51H202.913L202.927 158.75H203.114L203.128 152.804H202.598L202.583 158.607Z" fill="#FFA412"/>
<path d="M204.831 152.81L204.817 158.756L205.347 158.757L205.361 152.811L204.831 152.81Z" fill="#FFA412"/>
<path d="M206.166 158.736L206.181 152.832C206.109 152.818 206.052 152.818 205.98 152.818H205.65L205.636 158.764H205.966C206.037 158.764 206.095 158.75 206.166 158.736Z" fill="#FFA412"/>
<path d="M206.91 158.191L206.925 153.391C206.796 153.176 206.609 153.005 206.394 152.904L206.38 158.678C206.595 158.578 206.781 158.406 206.91 158.191Z" fill="#FFA412"/>
<path d="M204.723 146.863L204.709 152.809L205.239 152.811L205.253 146.864L204.723 146.863Z" fill="#FFA412"/>
<path d="M197.458 146.856L197.443 152.802L197.974 152.804L197.988 146.857L197.458 146.856Z" fill="#FFA412"/>
<path d="M193.952 146.844L193.938 152.791L194.468 152.792L194.482 146.846L193.952 146.844Z" fill="#FFA412"/>
<path d="M188.586 146.826L188.572 152.772L189.102 152.773L189.116 146.827L188.586 146.826Z" fill="#FFA412"/>
<path d="M183.56 146.82L183.546 152.766L184.076 152.767L184.09 146.821L183.56 146.82Z" fill="#FFA412"/>
<path d="M179.085 146.809L179.072 152.755L179.603 152.756L179.615 146.81L179.085 146.809Z" fill="#FFA412"/>
<path d="M206.432 146.876L206.418 152.822L206.948 152.824L206.963 146.877L206.432 146.876Z" fill="#FFA412"/>
<path d="M207.562 146.879L207.548 152.825L208.078 152.826L208.092 146.88L207.562 146.879Z" fill="#FFA412"/>
<path d="M208.652 146.871L208.638 152.818L209.168 152.819L209.182 146.873L208.652 146.871Z" fill="#FFA412"/>
<path d="M209.476 146.886L209.461 152.832H209.791C209.862 152.832 209.92 152.832 209.991 152.818L210.006 146.915C209.934 146.901 209.877 146.901 209.805 146.901L209.476 146.886Z" fill="#FFA412"/>
<path d="M210.22 146.972L210.206 152.747C210.421 152.646 210.607 152.474 210.736 152.259L210.75 147.46C210.621 147.245 210.435 147.073 210.22 146.972Z" fill="#FFA412"/>
<path d="M198.572 146.872H199.102L199.116 140.926H198.6L198.615 135.123H199.13L199.145 129.191H198.6V135.123H198.07V141.055H198.586L198.572 146.872Z" fill="#FFA412"/>
<path d="M196.782 140.916L196.766 146.862L197.297 146.863L197.312 140.917L196.782 140.916Z" fill="#FFA412"/>
<path d="M187.821 140.896L187.807 146.842L188.337 146.843L188.351 140.897L187.821 140.896Z" fill="#FFA412"/>
<path d="M182.454 140.877L182.44 146.823L182.97 146.825L182.984 140.879L182.454 140.877Z" fill="#FFA412"/>
<path d="M177.428 140.872L177.414 146.818L177.944 146.819L177.959 140.873L177.428 140.872Z" fill="#FFA412"/>
<path d="M172.94 140.86L172.926 146.806L173.456 146.808L173.47 140.862L172.94 140.86Z" fill="#FFA412"/>
<path d="M200.291 146.872H200.764L200.75 152.804H201.28L201.294 146.858H200.821L200.836 140.926H200.75L200.764 135.137H200.836L200.85 129.191H200.32L200.305 135.123H200.234L200.219 141.069H200.291V146.872Z" fill="#FFA412"/>
<path d="M201.429 140.931L201.418 146.877L201.948 146.878L201.959 140.932L201.429 140.931Z" fill="#FFA412"/>
<path d="M204.174 141.069H204.274L204.288 135.123H203.815C203.844 135.123 203.858 135.123 203.887 135.109L203.901 129.206C203.83 129.191 203.772 129.191 203.701 129.191H203.371L203.357 135.137H203.686C203.701 135.137 203.729 135.137 203.744 135.137L203.729 140.94C203.715 140.94 203.686 140.94 203.672 140.94H203.343L203.328 146.872H203.042L203.056 140.94H202.555L202.569 135.137H203.07L203.085 129.191H202.555L202.54 135.123H202.039L202.024 141.069H202.526L202.512 146.872H202.913L202.898 152.804H203.429L203.443 146.872H203.658C203.729 146.872 203.787 146.872 203.858 146.858L203.873 141.069H204.073L204.059 146.786C204.274 146.686 204.46 146.514 204.589 146.299L204.603 141.499C204.503 141.327 204.36 141.17 204.174 141.069Z" fill="#FFA412"/>
<path d="M185.899 135.078L185.886 141.024L186.416 141.026L186.429 135.079L185.899 135.078Z" fill="#FFA412"/>
<path d="M180.888 135.073L180.874 141.019L181.404 141.02L181.418 135.074L180.888 135.073Z" fill="#FFA412"/>
<path d="M176.399 135.061L176.385 141.007L176.915 141.009L176.929 135.063L176.399 135.061Z" fill="#FFA412"/>
<path d="M204.89 135.132L204.876 141.078L205.406 141.079L205.42 135.133L204.89 135.132Z" fill="#FFA412"/>
<path d="M205.981 135.139L205.967 141.085L206.497 141.086L206.511 135.14L205.981 135.139Z" fill="#FFA412"/>
<path d="M206.796 135.138L206.782 141.084H207.111C207.183 141.084 207.24 141.084 207.312 141.069L207.326 135.166C207.254 135.152 207.197 135.152 207.125 135.152L206.796 135.138Z" fill="#FFA412"/>
<path d="M208.057 140.51L208.071 135.711C207.942 135.496 207.756 135.324 207.541 135.223L207.527 140.998C207.742 140.897 207.928 140.725 208.057 140.51Z" fill="#FFA412"/>
<path d="M196.806 129.17L196.792 135.116L197.322 135.117L197.336 129.171L196.806 129.17Z" fill="#FFA412"/>
<path d="M195.176 129.177H194.646L194.632 135.123H194.761V140.912H194.632L194.618 146.858H195.148L195.162 141.055H195.291L195.305 135.109H195.162L195.176 129.177Z" fill="#FFA412"/>
<path d="M191.322 135.095H191.264L191.25 141.041H191.322L191.307 146.844H191.837L191.852 140.912H191.794V135.109H191.852L191.866 129.163H191.336L191.322 135.095Z" fill="#FFA412"/>
<path d="M187.846 129.151L187.832 135.097L188.362 135.098L188.376 129.152L187.846 129.151Z" fill="#FFA412"/>
<path d="M182.479 129.146L182.465 135.092L182.995 135.094L183.01 129.147L182.479 129.146Z" fill="#FFA412"/>
<path d="M177.454 129.126L177.439 135.072L177.969 135.073L177.985 129.127L177.454 129.126Z" fill="#FFA412"/>
<path d="M172.964 129.115L172.952 135.061L173.482 135.062L173.494 129.116L172.964 129.115Z" fill="#FFA412"/>
<path d="M201.456 129.185L201.441 135.131L201.971 135.133L201.987 129.186L201.456 129.185Z" fill="#FFA412"/>
<path d="M204.103 129.292L204.089 135.066C204.303 134.966 204.49 134.794 204.619 134.579L204.633 129.779C204.504 129.55 204.318 129.378 204.103 129.292Z" fill="#FFA412"/>
<path d="M219.707 145.124L223.016 145.712C223.274 145.755 223.518 145.869 223.69 146.027C223.876 146.199 224.019 146.4 224.077 146.629C224.091 146.7 224.105 146.772 224.105 146.844C224.105 146.915 224.105 146.973 224.091 147.044L215.881 193.109C215.781 193.696 215.15 194.097 214.477 194.011C214.448 194.011 214.434 194.011 214.405 193.997L211.096 193.41C211.067 193.41 211.053 193.395 211.024 193.395C210.365 193.252 209.906 192.665 210.021 192.063L218.231 145.998C218.231 145.97 218.245 145.941 218.245 145.912C218.245 145.898 218.245 145.884 218.26 145.869C218.26 145.855 218.274 145.841 218.274 145.826C218.274 145.812 218.274 145.812 218.288 145.798C218.317 145.726 218.346 145.669 218.389 145.612C218.389 145.597 218.403 145.597 218.403 145.583C218.403 145.569 218.417 145.569 218.417 145.554C218.432 145.54 218.446 145.526 218.46 145.497C218.475 145.483 218.475 145.483 218.489 145.468C218.503 145.454 218.503 145.454 218.517 145.44C218.532 145.425 218.546 145.411 218.56 145.397C218.575 145.382 218.603 145.368 218.618 145.354C218.632 145.339 218.646 145.325 218.661 145.311C218.675 145.296 218.689 145.296 218.689 145.282C218.718 145.253 218.761 145.239 218.804 145.225C218.818 145.225 218.833 145.21 218.833 145.21C218.847 145.21 218.861 145.196 218.861 145.196C218.89 145.182 218.904 145.182 218.933 145.167C219.177 145.11 219.434 145.081 219.707 145.124Z" fill="#FFB93E"/>
<path d="M220.25 168.565L215.851 193.252C215.751 193.782 215.135 194.126 214.461 194.026C214.433 194.026 214.418 194.026 214.39 194.011L211.08 193.424C211.051 193.424 211.037 193.409 211.008 193.409C210.349 193.266 209.877 192.736 209.977 192.206L213.831 170.556C213.874 170.556 213.931 170.556 213.974 170.556C215.78 170.499 218.215 170.098 220.25 168.565Z" fill="#FFA412"/>
<path d="M217.415 150.518L217.322 151.039L223.175 152.084L223.268 151.562L217.415 150.518Z" fill="#FFA412"/>
<path d="M217.104 152.288L217.011 152.81L222.865 153.851L222.957 153.33L217.104 152.288Z" fill="#FFA412"/>
<path d="M216.723 154.393L216.63 154.915L222.484 155.958L222.577 155.436L216.723 154.393Z" fill="#FFA412"/>
<path d="M216.137 157.657L216.044 158.179L221.898 159.222L221.991 158.7L216.137 157.657Z" fill="#FFA412"/>
<path d="M215.527 161.119L215.434 161.641L221.288 162.682L221.381 162.16L215.527 161.119Z" fill="#FFA412"/>
<path d="M214.605 166.39L214.511 166.912L220.365 167.955L220.458 167.433L214.605 166.39Z" fill="#FFA412"/>
<path d="M213.709 171.343L213.616 171.865L219.47 172.907L219.563 172.385L213.709 171.343Z" fill="#FFA412"/>
<path d="M212.928 175.772L212.835 176.294L218.688 177.339L218.781 176.817L212.928 175.772Z" fill="#FFA412"/>
<path d="M217.715 148.814L217.622 149.336L223.476 150.379L223.569 149.857L217.715 148.814Z" fill="#FFA412"/>
<path d="M217.932 147.71L217.839 148.231L223.693 149.275L223.786 148.753L217.932 147.71Z" fill="#FFA412"/>
<path d="M218.106 146.613L218.013 147.134L223.867 148.177L223.96 147.655L218.106 146.613Z" fill="#FFA412"/>
<path d="M218.173 146.342L224.019 147.388L224.076 147.059C224.091 146.987 224.091 146.93 224.091 146.858L218.288 145.826C218.259 145.884 218.245 145.955 218.231 146.013L218.173 146.342Z" fill="#FFA412"/>
<path d="M218.388 145.626L224.062 146.629C224.004 146.4 223.875 146.185 223.675 146.027L218.946 145.182C218.717 145.282 218.517 145.44 218.388 145.626Z" fill="#FFA412"/>
<path d="M331.234 194.025H311.118C310.043 193.108 311.863 191.031 313.769 190.902C314.6 190.845 315.646 191.017 316.835 191.26C317.107 187.578 318.697 171.058 324.644 171.731C331.335 172.476 324.644 179.01 322.752 182.878C321.348 185.744 319.872 189.856 319.199 191.79C319.743 191.905 320.302 192.02 320.875 192.134C321.764 189.412 325.059 180.242 329.271 180.772C334.2 181.403 332.223 185.07 328.727 187.248C326.162 188.853 323.01 191.131 321.52 192.234C322.781 192.435 324.113 192.578 325.446 192.55C328.899 192.464 330.575 193.467 331.234 194.025Z" fill="#82B378"/>
<path d="M69.0186 193.352C68.2162 192.092 65.8091 188.839 62.614 189.269C59.1323 189.742 66.4682 192.034 68.7177 193.352C68.2162 193.352 67.7864 193.324 67.4712 193.209C65.9667 192.679 63.402 193.696 62.571 194.054H76.8703C76.77 193.711 76.5121 193.152 75.853 192.751C75.6238 192.607 75.151 192.593 74.5349 192.636C75.3802 191.633 75.982 188.424 73.6035 189.255C71.8699 189.856 71.8842 191.819 72.0418 192.966C71.6693 193.023 71.2967 193.08 70.9385 193.137C70.2221 189.513 67.7147 178.867 62.5996 178.595C57.4272 178.308 66.984 189.627 70.1791 193.252C69.778 193.295 69.3911 193.338 69.0186 193.352Z" fill="#82B378"/>
<path d="M210.857 103.009C218.903 94.9628 218.903 81.9175 210.857 73.8713C202.811 65.8252 189.766 65.8252 181.72 73.8713C173.674 81.9175 173.674 94.9628 181.72 103.009C189.766 111.055 202.811 111.055 210.857 103.009Z" fill="#E2810E"/>
<path d="M214.643 94.5404C217.533 83.5346 210.954 72.2696 199.948 69.3793C188.942 66.489 177.677 73.0679 174.787 84.0738C171.897 95.0796 178.476 106.345 189.481 109.235C200.487 112.125 211.752 105.546 214.643 94.5404Z" fill="#FFB93E"/>
<path d="M194.861 108.287C188.241 108.287 181.808 104.777 178.398 98.5871C175.976 94.2028 175.418 89.1307 176.807 84.3165C178.197 79.5023 181.392 75.5191 185.777 73.0977C190.161 70.6762 195.233 70.1174 200.047 71.5073C204.862 72.8971 208.845 76.0922 211.266 80.4766C216.267 89.5462 212.957 100.98 203.887 105.966C201.022 107.542 197.927 108.287 194.861 108.287ZM194.803 71.8655C191.866 71.8655 188.957 72.6105 186.307 74.072C182.18 76.3501 179.186 80.0897 177.868 84.6173C176.564 89.145 177.094 93.9162 179.372 98.0427C182.582 103.874 188.628 107.17 194.861 107.17C197.74 107.17 200.649 106.468 203.357 104.977C211.882 100.278 214.991 89.5318 210.292 81.0067C208.014 76.8802 204.274 73.8857 199.746 72.5675C198.113 72.109 196.451 71.8655 194.803 71.8655Z" fill="#FFA412"/>
<path d="M199.718 93.0421C199.56 92.6696 199.374 92.3544 199.159 92.1108C198.93 91.8672 198.658 91.681 198.314 91.5377C197.97 91.4087 197.583 91.3084 197.11 91.2654C196.652 91.2225 196.107 91.2225 195.477 91.2511C194.388 91.3084 193.385 91.3084 192.468 91.2511C191.551 91.2081 190.706 91.0505 189.96 90.7926C189.215 90.5347 188.556 90.1622 187.998 89.6464C187.439 89.1306 186.966 88.4285 186.608 87.5545C186.293 86.7951 186.149 86.0357 186.164 85.305C186.178 84.5599 186.35 83.8579 186.651 83.1845C186.966 82.5111 187.41 81.895 187.998 81.3075C188.585 80.7344 189.287 80.2186 190.132 79.7887L188.958 76.9088L191.279 75.9632L192.468 78.8861C193.342 78.6568 194.187 78.5709 195.004 78.6282C195.821 78.6855 196.566 78.8861 197.253 79.2156C197.941 79.5595 198.557 80.0323 199.116 80.6484C199.661 81.2645 200.119 82.0239 200.492 82.9266L196.293 84.6316C195.849 83.557 195.29 82.8406 194.588 82.4967C193.886 82.1529 193.141 82.1529 192.339 82.4824C191.909 82.6543 191.551 82.8693 191.293 83.1272C191.021 83.3707 190.834 83.643 190.72 83.9438C190.605 84.2447 190.548 84.5456 190.577 84.8752C190.591 85.2047 190.677 85.5343 190.806 85.8638C190.935 86.1933 191.107 86.4799 191.322 86.7092C191.522 86.9384 191.794 87.1247 192.124 87.2536C192.454 87.3826 192.855 87.4685 193.328 87.5115C193.8 87.5545 194.374 87.5688 195.047 87.5402C196.122 87.5115 197.124 87.5258 198.041 87.5832C198.958 87.6405 199.789 87.7981 200.535 88.056C201.28 88.3139 201.939 88.7007 202.497 89.2165C203.056 89.7324 203.515 90.4201 203.873 91.2941C204.188 92.0821 204.346 92.8559 204.331 93.5866C204.317 94.3316 204.145 95.0337 203.83 95.6928C203.515 96.3519 203.056 96.968 202.454 97.5411C201.853 98.1142 201.136 98.6157 200.305 99.0455L201.394 101.725L199.087 102.656L197.998 99.9912C197.167 100.235 196.308 100.378 195.448 100.407C194.588 100.435 193.772 100.321 192.984 100.048C192.196 99.7763 191.479 99.3178 190.806 98.6873C190.147 98.0569 189.588 97.1972 189.158 96.1226L193.356 94.4176C193.614 95.0624 193.915 95.5495 194.273 95.9077C194.631 96.2659 195.004 96.5095 195.405 96.6384C195.806 96.7674 196.222 96.8104 196.652 96.7674C197.081 96.7101 197.483 96.6098 197.884 96.4522C198.342 96.2659 198.715 96.051 199.016 95.7931C199.317 95.5352 199.532 95.2629 199.689 94.9621C199.832 94.6612 199.918 94.346 199.918 94.0164C199.933 93.7155 199.861 93.386 199.718 93.0421Z" fill="#FFA412"/>
<path d="M215.207 77.3529C214.347 76.7511 212.384 75.4043 212.284 75.7052C212.212 75.9201 212.312 76.2783 212.556 76.6651C211.367 76.221 210.178 75.9344 207.341 76.4789C206.768 76.5935 206.252 76.9087 205.951 77.3959C205.664 77.84 205.55 78.4131 206.28 78.8573C207.727 79.76 207.312 79.2155 209.318 80.5337C211.324 81.8519 213.788 82.1814 215.264 81.2644L217.241 80.9349L217.485 77.6824C217.485 77.6824 216.353 77.5535 215.207 77.3529Z" fill="#FFB27D"/>
<path d="M266.989 50.101C266.989 50.101 262.332 55.6316 256.4 53.3105C256.4 53.3105 255.125 50.23 255.111 47.9518C255.111 47.6653 255.111 47.4074 255.096 47.1495C255.068 44.5848 254.982 43.152 254.982 43.152C255.254 43.0373 264.051 39.4267 264.037 39.7276C263.894 46.648 266.989 50.101 266.989 50.101Z" fill="#FFB27D"/>
<path d="M263.163 41.3753C262.318 42.9514 259.409 46.0319 255.096 47.1494C255.068 44.5847 254.982 43.1519 254.982 43.1519C255.225 43.0803 263.421 40.9025 263.163 41.3753Z" fill="#ED975D"/>
<path d="M253.133 42.8796C253.133 42.8796 263.033 45.2008 264.38 39.0254C265.727 32.8357 267.919 28.9815 261.658 27.2335C255.397 25.4855 253.649 27.5774 252.689 29.526C251.743 31.4746 250.597 42.1059 253.133 42.8796Z" fill="#FFB27D"/>
<path d="M264.051 40.7019C264.18 40.7879 266.315 41.447 270.341 33.409C270.972 32.1481 271.401 29.4258 269.926 27.0044C268.45 24.5973 263.22 22.706 258.879 21.875C254.537 21.044 253.491 23.494 252.46 25.9585C251.385 28.5375 248.276 30.658 248.276 30.658C252.03 32.7499 256.543 29.7554 258.105 30.2425C259.667 30.7297 260.226 33.1941 260.34 33.9964C260.455 34.7845 260.641 35.4436 262.604 34.7415C264.567 34.0394 263.492 37.5355 263.177 38.1945C263.177 38.2089 262.919 39.9855 264.051 40.7019Z" fill="#A9453D"/>
<path d="M289.541 194.928H295.53C296.791 194.928 298.18 193.667 298.524 191.375C298.868 189.068 301.461 187.821 302.02 185.93C302.579 184.039 299.713 181.388 299.713 181.388L299.241 180.772L298.739 180.127L293.997 181.245C293.997 181.245 293.882 182.377 293.81 183.809C293.753 184.855 293.739 186.045 293.796 187.105C293.939 189.612 293.094 192.32 290.859 192.807C288.609 193.309 289.541 194.928 289.541 194.928Z" fill="#2C3A64"/>
<path d="M247.817 194.928H263.692C263.85 194.9 263.965 194.871 264.036 194.828C265.097 194.298 264.767 190.243 264.638 188.982C264.609 188.753 264.595 188.61 264.595 188.61C264.595 188.61 259.007 184.139 258.248 187.564C258.219 187.664 258.19 187.779 258.162 187.879C257.188 191.074 252.86 192.535 250.353 192.937C248.447 193.252 247.946 194.369 247.817 194.928Z" fill="#2C3A64"/>
<path d="M251.026 103.344C251.026 103.344 251.871 113.932 252.874 126.641C254.235 143.921 255.855 165.14 256.026 169.167C256.299 176.144 257.416 187.32 257.416 187.32C257.416 187.32 260.067 189.971 265.368 188.853C265.368 188.853 270.097 172.906 271.443 156.042C271.458 155.77 271.486 155.483 271.501 155.211C272.762 138.046 274.71 101.882 274.71 101.882L251.026 103.344Z" fill="#2B478B"/>
<path d="M251.026 103.344C251.026 103.344 251.871 113.932 252.874 126.641L271.458 156.042C271.472 155.77 271.501 155.483 271.515 155.211C272.776 138.046 274.724 101.882 274.724 101.882L251.026 103.344Z" fill="#233862"/>
<path d="M254.896 104.59C254.896 104.59 270.184 142.918 280.228 160.928C290.286 178.938 293.424 183.967 293.424 183.967C293.424 183.967 299.184 181.66 299.699 180.099C299.699 180.099 295.859 145.325 289.125 136.857C285.328 132.071 280.858 117.7 280.643 112.671C280.443 107.628 279.296 97.6841 279.296 97.6841L254.896 104.59Z" fill="#2B478B"/>
<path d="M289.756 97.6414L289.913 100.106C289.913 100.106 288.294 104.49 292.836 106.725C292.836 106.725 294.785 107.513 294.871 105.995C294.957 104.476 294.699 105.049 294.857 102.914C295.014 100.779 294.169 98.759 292.765 98.0712L291.604 96.7387L289.756 97.6414Z" fill="#FFB27D"/>
<path d="M291.546 99.4324C289.855 99.9769 289.583 99.8479 289.583 99.8479C289.583 99.8479 281.344 84.8609 280.513 83.4854C279.682 82.1099 263.033 66.6643 263.033 66.6643L267.317 50.703C267.317 50.703 286.259 75.2325 288.308 78.7428C291.689 84.56 293.666 98.0713 293.666 98.0713C293.666 98.0713 292.864 99.0026 291.546 99.4324Z" fill="#1E3D70"/>
<path d="M247.803 72.9398C247.86 76.2209 248.046 79.9032 248.304 83.6428C248.319 83.8578 248.333 84.087 248.347 84.3019C248.505 86.6231 248.691 88.9442 248.892 91.208C248.978 92.1107 249.064 93.0133 249.15 93.9017L249.164 94.0163C249.164 94.3458 249.207 94.704 249.25 95.0336C250.081 103.516 250.955 110.221 251.127 110.322C251.328 110.45 251.542 110.522 251.772 110.493C253.993 110.207 260.641 110.723 266.071 109.533C270.656 108.559 274.611 106.725 278.794 104.261C279.353 103.931 280.614 103.057 280.514 102.412C280.413 101.696 280.227 100.664 279.984 99.375C279.152 94.8616 277.734 87.0959 277.247 78.0119C277.147 76.3212 277.018 74.6449 276.831 72.9972C276.359 68.7131 275.613 64.6439 274.611 61.0333C272.748 54.3278 270.011 49.1841 266.573 47.1781C266.128 46.9202 263.707 48.4677 261.486 49.8861C259.437 51.2043 257.274 51.5625 255.182 51.3762L253.362 53.4108C251.127 56.0042 248.749 59.4715 248.089 64.386C248.046 64.7442 248.003 65.1311 247.96 65.5466C247.789 67.5525 247.746 70.0886 247.803 72.9398Z" fill="#2A4E96"/>
<path d="M247.803 72.94C247.86 76.2211 248.046 79.9034 248.304 83.643C248.318 83.8579 248.333 84.0872 248.347 84.3021C261.056 76.3501 263.019 61.7929 263.019 61.7929C256.772 62.0651 251.8 63.4979 247.975 65.5611C247.788 67.5527 247.745 70.0888 247.803 72.94Z" fill="#1E3D70"/>
<path d="M215.68 79.2011C215.551 77.3099 216.525 77.009 216.525 77.009C216.525 77.009 235.696 73.5416 237.315 73.0258C238.948 72.51 252.875 58.0244 252.875 58.0244C252.875 58.0244 258.219 52.0066 262.589 53.3392C266.386 54.4997 267.877 57.4656 268.378 60.2882C268.98 63.6553 267.432 67.0367 264.509 68.8277C257.976 72.8395 244.88 80.7486 241.785 81.6512C234.922 83.6571 216.482 81.8088 216.482 81.8088C216.482 81.8088 215.78 80.6769 215.68 79.2011Z" fill="#2A4E96"/>
<path opacity="0.2" d="M238.232 116.01V187.248C238.232 191.404 234.836 194.799 230.681 194.799H157.451C156.821 194.799 156.19 194.728 155.603 194.57C154.328 194.255 153.181 193.624 152.25 192.765C151.577 192.149 151.018 191.432 150.602 190.616C150.574 190.573 150.559 190.53 150.531 190.487C150.086 189.613 149.814 188.624 149.743 187.607C149.728 187.435 149.728 187.248 149.728 187.077V116.468C149.728 112.471 151.792 108.774 155.159 106.625C155.159 106.625 155.159 106.625 155.173 106.625C157.981 104.834 159.844 101.682 159.844 98.0998C159.844 97.0395 159.686 96.0222 159.371 95.0479H228.589C228.289 96.0079 228.117 97.0252 228.117 98.0998C228.117 101.524 229.822 104.562 232.444 106.396C232.616 106.51 232.802 106.639 232.974 106.74C236.226 108.717 238.232 112.213 238.232 116.01Z" fill="#ED9F4A"/>
<path opacity="0.2" d="M238.232 116.01V187.248C238.232 191.232 235.122 194.513 231.211 194.785C231.039 194.799 230.853 194.799 230.681 194.799H198.443C194.202 194.799 190.72 191.318 190.72 187.077V116.468C190.72 112.471 192.783 108.774 196.15 106.625C198.959 104.834 200.821 101.682 200.821 98.0998C200.821 97.0395 200.664 96.0222 200.348 95.0479H228.589C228.288 96.0079 228.116 97.0252 228.116 98.0998C228.116 100.908 229.262 103.458 231.111 105.292C231.669 105.851 232.3 106.338 232.973 106.74C236.226 108.717 238.232 112.213 238.232 116.01Z" fill="#ED9F4A"/>
<path opacity="0.6" d="M232.444 106.396C230.18 105.049 220.394 100.249 195.477 100.45C166.95 100.679 155.517 106.453 155.158 106.625C157.967 104.834 159.829 101.682 159.829 98.0998C159.829 97.0395 159.672 96.0222 159.357 95.0479H228.575C228.274 96.0079 228.102 97.0252 228.102 98.0998C228.131 101.538 229.836 104.562 232.444 106.396Z" fill="#ED9F4A"/>
<path d="M230.165 94.561V97.7992C230.165 98.1144 229.908 98.3723 229.592 98.3723H158.382C158.067 98.3723 157.809 98.1144 157.809 97.7992V94.561C157.809 94.2458 158.067 93.9879 158.382 93.9879H229.592C229.893 93.9879 230.165 94.2458 230.165 94.561Z" fill="#2B478B"/>
<path d="M230.165 94.561V97.7992C230.165 98.1144 229.907 98.3723 229.592 98.3723H202.641C202.326 98.3723 202.068 98.1144 202.068 97.7992V94.561C202.068 94.2458 202.326 93.9879 202.641 93.9879H229.577C229.893 93.9879 230.165 94.2458 230.165 94.561Z" fill="#233862"/>
<path d="M182.654 110.565C182.654 110.565 180.82 113.144 179.129 113.187C177.453 113.23 174.888 111.984 174.888 111.984C174.888 111.984 173.341 108.545 174.387 107.198C174.387 107.198 175.433 106.74 176.536 107.556C176.722 107.7 176.923 107.872 177.109 108.101C177.381 108.416 177.668 108.602 177.997 108.703C179.201 109.061 180.62 108.215 181.15 109.032C181.465 109.519 181.794 109.877 182.081 110.135C182.411 110.408 182.654 110.565 182.654 110.565Z" fill="#F9DDBF"/>
<path d="M158.726 129.191C158.726 129.191 165.217 113.474 176.894 113.173C176.894 113.173 187.669 114.376 188.27 129.191H158.726Z" fill="#F9DDBF"/>
<path d="M173.698 113.66C173.698 113.66 178.384 114.706 179.816 114.09C179.816 114.09 180.031 112.127 178.068 112.414C176.722 112.6 175.848 111.955 175.318 111.697C174.587 111.31 173.498 112.844 173.698 113.66Z" fill="#F1A34F"/>
<path d="M177.768 110.709C177.467 110.938 176.55 107.542 176.55 107.542C176.736 107.685 176.937 107.857 177.123 108.087C177.395 108.402 177.682 108.588 178.011 108.688C177.997 108.789 178.054 110.494 177.768 110.709Z" fill="#E5C1A1"/>
<path d="M182.081 110.121C182.009 110.164 179.845 111.453 179.559 111.453C179.258 111.453 181.149 109.018 181.149 109.018C181.464 109.505 181.808 109.863 182.081 110.121Z" fill="#E5C1A1"/>
<path d="M165.059 124.807C164.944 124.707 169.644 117.872 170.948 117.815C172.251 117.772 175.16 119.305 177.266 119.506C179.372 119.706 181.421 119.105 181.822 120.351C182.224 121.598 183.313 126.025 182.639 126.727C181.98 127.443 167.652 127.014 165.059 124.807Z" fill="#E5C1A1"/>
<path opacity="0.5" d="M159.815 189.426C159.442 189.627 159.056 189.813 158.683 189.985C158.325 190.2 157.952 190.401 157.58 190.601C155.846 191.504 154.069 192.235 152.25 192.779C151.576 192.163 151.018 191.447 150.602 190.63C150.315 190.787 150.029 190.931 149.728 191.074V137.33C151.061 137.502 152.379 137.774 153.683 138.118C160.947 140.081 167.409 144.694 171.349 151.5C179.143 164.997 173.985 181.976 159.815 189.426Z" fill="#E2810E"/>
<path d="M164.73 149.379C156.921 135.209 139.097 130.051 124.927 137.86C110.756 145.669 105.598 163.493 113.407 177.663C121.216 191.833 139.04 196.991 153.21 189.183C167.38 181.374 172.539 163.564 164.73 149.379Z" fill="#E2810E"/>
<path d="M152.078 189.784C151.72 189.999 151.347 190.214 150.975 190.429C150.846 190.501 150.717 190.572 150.602 190.63C150.316 190.787 150.029 190.93 149.728 191.074C135.773 197.922 118.751 192.664 111.172 178.909C103.936 165.785 107.819 149.523 119.697 140.983C120.643 140.295 121.646 139.665 122.692 139.092C123.064 138.891 123.451 138.691 123.823 138.504C124.196 138.318 124.568 138.146 124.941 137.974C126.087 137.458 127.248 137.029 128.437 136.685C130.185 136.155 131.962 135.796 133.738 135.61C139.255 135.023 144.814 136.04 149.743 138.447C154.972 140.997 159.486 145.138 162.509 150.612C170.103 164.424 165.418 181.675 152.078 189.784Z" fill="#FFB93E"/>
<path d="M137.034 191.776C134.54 191.776 132.033 191.418 129.583 190.716C122.734 188.738 117.06 184.196 113.622 177.964C110.183 171.717 109.381 164.51 111.358 157.661C113.335 150.812 117.877 145.138 124.11 141.7C130.357 138.261 137.564 137.459 144.412 139.436C151.261 141.413 156.935 145.955 160.374 152.188C163.813 158.42 164.615 165.642 162.638 172.491C160.66 179.339 156.118 185.013 149.886 188.452C145.888 190.658 141.475 191.776 137.034 191.776ZM115.011 177.19C118.25 183.065 123.58 187.32 130.027 189.183C136.475 191.045 143.252 190.286 149.126 187.048C155.001 183.81 159.256 178.48 161.119 172.032C162.981 165.584 162.222 158.807 158.984 152.933C155.746 147.058 150.416 142.803 143.968 140.94C137.521 139.078 130.744 139.837 124.869 143.075C118.995 146.313 114.739 151.643 112.877 158.091C111.014 164.538 111.773 171.316 115.011 177.19Z" fill="#FFA412"/>
<path d="M149.914 167.619C149.857 167.476 149.8 167.332 149.728 167.203C149.255 166.158 148.653 165.312 147.951 164.667C147.149 163.937 146.218 163.392 145.157 163.02C144.097 162.647 142.908 162.432 141.604 162.346C140.3 162.26 138.867 162.246 137.334 162.289C136.389 162.318 135.572 162.303 134.898 162.246C134.225 162.189 133.652 162.06 133.179 161.873C132.706 161.687 132.334 161.429 132.033 161.1C131.746 160.77 131.503 160.369 131.302 159.896C131.102 159.423 131.001 158.951 130.973 158.492C130.944 158.034 131.016 157.589 131.188 157.174C131.36 156.758 131.632 156.372 132.004 156.013C132.377 155.655 132.878 155.354 133.494 155.111C134.641 154.652 135.701 154.652 136.689 155.139C137.678 155.626 138.48 156.629 139.111 158.163L145.086 155.741C144.57 154.466 143.911 153.377 143.137 152.503C142.349 151.629 141.475 150.941 140.486 150.454C139.512 149.967 138.438 149.695 137.277 149.609C136.116 149.523 134.913 149.652 133.681 149.981L131.99 145.812L128.68 147.159L130.342 151.271C129.153 151.887 128.136 152.603 127.305 153.434C126.474 154.251 125.843 155.139 125.399 156.099C124.955 157.059 124.726 158.062 124.697 159.108C124.668 160.154 124.883 161.229 125.327 162.318C125.843 163.578 126.488 164.567 127.29 165.298C128.093 166.029 129.024 166.573 130.084 166.931C131.145 167.289 132.334 167.504 133.638 167.576C134.956 167.648 136.374 167.648 137.922 167.576C138.81 167.519 139.598 167.533 140.257 167.59C140.916 167.648 141.489 167.777 141.962 167.963C142.435 168.163 142.836 168.421 143.151 168.78C143.467 169.123 143.739 169.568 143.954 170.112C144.14 170.585 144.24 171.058 144.24 171.531C144.24 172.003 144.14 172.448 143.925 172.877C143.71 173.307 143.395 173.708 142.979 174.067C142.564 174.425 142.02 174.74 141.375 175.012C140.816 175.241 140.229 175.399 139.627 175.471C139.025 175.542 138.438 175.485 137.864 175.299C137.291 175.112 136.747 174.754 136.245 174.253C135.744 173.751 135.314 173.049 134.941 172.132L128.967 174.554C129.583 176.087 130.371 177.305 131.317 178.207C132.262 179.11 133.294 179.755 134.411 180.142C135.529 180.528 136.704 180.7 137.922 180.643C139.14 180.6 140.357 180.4 141.547 180.041L143.094 183.838L146.375 182.506L144.828 178.694C146.017 178.078 147.049 177.362 147.894 176.56C148.682 175.815 149.298 175.012 149.742 174.138C149.785 174.067 149.814 173.995 149.843 173.923C150.287 172.978 150.53 171.989 150.559 170.929C150.573 169.84 150.373 168.751 149.914 167.619Z" fill="#FFA412"/>
<path d="M115.054 61.6065C115.14 61.2483 107.245 65.1742 106.844 65.6184C103.148 69.7305 104.194 75.0892 106.314 75.1321C107.675 75.1608 107.403 77.4246 107.403 77.4246L122.533 71.02C122.548 71.02 120.728 60.3887 115.054 61.6065Z" fill="#2C3A64"/>
<path d="M116.916 62.4375C116.916 62.4375 117.461 56.5344 110.87 56.5344C110.87 56.5344 112.861 57.0788 113.893 58.1534C113.893 58.1534 109.695 55.689 105.124 59.4716C100.554 63.2685 103.391 72.768 102.001 74.5733C100.611 76.3786 95.1951 76.7368 95.8542 82.5826C96.5133 88.4141 113.048 95.7357 111.973 100.564C111.973 100.564 118.449 91.0505 113.821 86.6948C113.821 86.6948 116.085 88.8153 116.315 91.3514C116.315 91.3514 116.931 86.4225 113.793 84.8465C111.013 83.4566 108.735 78.3416 108.979 77.4246C109.222 76.5076 116.916 62.4375 116.916 62.4375Z" fill="#2C3A64"/>
<path d="M110.942 90.1764C109.925 85.2906 103.578 83.7718 100.583 87.7693C100.039 88.4857 99.6661 89.3311 99.5372 90.334C98.8494 95.8933 107.733 118.503 109.008 120.552C111.329 124.277 124.955 137.058 124.955 137.058L127.462 135.539C127.462 135.539 117.791 119.176 116.301 117.643C114.567 115.866 112.862 99.4609 110.942 90.1764Z" fill="#ED985F"/>
<path d="M123.995 135.539C123.995 135.539 127.663 133.132 129.053 133.289C130.442 133.447 134.454 134.608 134.511 135.195C134.554 135.782 130.041 136.155 129.726 136.47C129.425 136.8 126.345 138.849 125.241 138.204C124.109 137.559 123.995 135.539 123.995 135.539Z" fill="#ED985F"/>
<path d="M98.4195 189.928L95.1384 189.441C95.1384 189.441 84.1202 180.686 82.4868 164.352C82.3149 162.69 82.2862 161 82.4152 159.309C82.4295 159.108 82.4008 158.922 82.3005 158.75C81.9423 158.206 81.0683 156.859 79.8791 154.925C78.7042 153.033 76.6983 149.437 74.5061 145.411C70.5373 138.161 65.9093 129.492 64.3189 126.741C59.2611 117.944 61.6969 112.027 61.6969 112.027C61.6969 112.027 75.7956 110.637 79.6499 107.255L81.0397 109.405C81.0397 109.405 84.0915 122.93 83.9482 122.987C84.0915 123.446 84.2491 123.919 84.4067 124.392C86.8138 131.828 89.5935 141.127 91.0979 148.706C91.9433 152.962 92.4018 156.687 92.1582 159.209C92.0722 160.083 92.1725 161.415 92.4017 163.063C93.7772 172.763 98.4195 189.928 98.4195 189.928Z" fill="#2B478B"/>
<path d="M105.282 194.068H91.6134C91.6134 194.068 91.2838 191.991 92.0002 190.401C92.688 188.882 93.6623 188.839 92.1292 186.46C93.0032 187.349 95.7828 187.721 97.7601 187.463C98.0037 187.85 99.3218 190.486 100.124 191.074C101.027 191.719 105.01 191.489 105.282 194.068Z" fill="#233862"/>
<path d="M84.4064 124.406C83.2172 130.983 80.3946 141.944 74.4915 145.44C70.5226 138.19 65.8947 129.521 64.3043 126.77C59.2465 117.973 61.6823 112.055 61.6823 112.055C61.6823 112.055 75.781 110.666 79.6352 107.284L81.025 109.433C81.025 109.433 84.0769 122.959 83.9336 123.016C84.1055 123.46 84.2631 123.919 84.4064 124.406Z" fill="#233862"/>
<path d="M109.481 87.1389C109.481 87.1389 111.415 89.1448 112.289 91.5519C112.289 91.5519 109.209 100.407 102.002 101.51C102.002 101.51 107.704 87.1389 109.481 87.1389Z" fill="#ED7D2B"/>
<path d="M74.8209 113.058L74.8638 110.508C69.7774 111.153 57.3121 104.419 57.3121 104.419C57.3121 104.419 51.9821 107.958 51.2513 118.088C50.8931 123.031 48.6436 143.921 48.4001 150.154C48.3141 152.417 48.2854 154.022 48.2711 154.667C48.2711 154.867 48.1708 155.039 48.0562 155.197C46.9959 156.529 46.0933 157.948 45.2909 159.424C37.5251 173.881 41.5799 193.524 41.5799 193.524L43.3853 193.066C43.3853 193.066 49.9618 172.706 54.2459 163.894C54.9766 162.404 55.6357 161.243 56.1945 160.57C57.8135 158.607 59.5186 155.283 61.1949 151.271C64.3614 143.692 67.4419 133.691 69.6484 125.954C69.8061 125.968 74.8209 113.058 74.8209 113.058Z" fill="#2B478B"/>
<path d="M104.623 95.9937C96.2987 94.0881 101.614 82.3822 102.102 82.5971C103.248 82.3678 105.784 80.3333 108.048 76.3787L108.349 76.651L113.464 81.1356C113.464 81.1356 112.289 82.8836 111.286 84.5887C110.512 85.9212 109.853 87.2393 109.953 87.6978C110.383 88.0131 106.844 96.5095 104.623 95.9937Z" fill="#FFB27D"/>
<path d="M113.478 81.1355C113.478 81.1355 112.289 82.8835 111.3 84.5886C108.12 82.6256 108.12 78.6998 108.363 76.6509L113.478 81.1355Z" fill="#ED985F"/>
<path d="M113.622 83.3707C113.622 83.3707 105.899 79.0724 108.65 74.3155C111.401 69.5442 112.26 65.7903 117.304 68.3264C122.347 70.8624 122.247 73.2265 121.717 75.0462C121.187 76.8658 115.699 84.3737 113.622 83.3707Z" fill="#FFB27D"/>
<path d="M123.02 72.2665C122.662 70.146 121.587 69.9454 120.842 70.0887C117.991 65.3748 113.335 67.2088 113.335 67.2088C110.841 70.3323 107.245 70.8624 107.245 70.8624C107.245 70.8624 108.148 72.5244 111.83 73.556C112.962 73.8713 114.237 73.685 115.469 73.2695C112.905 74.7023 110.225 75.2467 110.225 75.2467C115.083 75.6909 119.71 71.2492 120.198 70.7764C120.427 71.4642 120.814 72.9113 120.584 73.9572C120.269 75.39 118.994 77.9834 119.768 78.3273C119.768 78.3273 123.55 75.433 123.02 72.2665Z" fill="#2C3A64"/>
<path d="M52.455 194.069H38.7861C38.7861 194.069 38.4566 191.991 39.173 190.401C39.8607 188.882 40.9353 188.194 40.6774 186.36C41.5514 187.248 42.9556 188.251 44.9328 187.993C45.1764 188.38 46.4946 190.487 47.2969 191.074C48.1996 191.719 52.1828 191.49 52.455 194.069Z" fill="#233862"/>
<path d="M105.612 105.278C103.85 105.894 101.385 106.224 98.8636 106.496C95.2673 106.883 91.5563 107.155 89.622 107.929C88.92 108.215 88.4328 108.559 88.2895 109.003C87.4442 111.539 83.7332 115.451 83.7332 115.451C59.9345 114.362 57.3268 104.418 57.3268 104.418C73.3311 85.7921 100.44 80.4048 100.44 80.4048C100.44 80.4048 102.374 79.5881 107.245 83.4566C110.498 86.05 110.068 87.0386 110.068 87.0386C110.068 87.0386 110.784 103.473 105.612 105.278Z" fill="#F99746"/>
<path d="M98.8641 106.496C95.2678 106.883 91.5568 107.155 89.6225 107.929C88.8345 96.0652 94.4224 87.1389 94.4224 87.1389C94.4224 87.1389 98.076 102.011 98.8641 106.496Z" fill="#ED7D2B"/>
<path d="M102.56 84.8464C102.56 84.8464 93.5479 85.7347 92.8316 91.5949C92.1152 97.4407 101.471 121.282 102.804 123.446C105.24 127.372 119.611 140.84 119.611 140.84L122.261 139.235C122.261 139.235 112.074 121.985 110.498 120.38C108.005 117.829 105.598 86.8666 102.56 84.8464Z" fill="#FFB27D"/>
<path d="M93.0896 95.1053C93.1183 95.2343 101.4 97.8133 106.73 95.1053C106.73 95.1053 107.876 82.7976 101.5 83.471C95.1385 84.1444 91.356 86.1503 91.1983 89.1879C91.0407 92.2397 93.0896 95.1053 93.0896 95.1053Z" fill="#F99746"/>
<path d="M118.779 139.121C118.779 139.121 122.003 136.155 123.407 136.083C124.797 136.012 128.952 136.513 129.095 137.086C129.238 137.659 124.825 138.748 124.582 139.121C124.338 139.493 121.63 142.015 120.427 141.557C119.238 141.084 118.779 139.121 118.779 139.121Z" fill="#FFB27D"/>
<path d="M33.8241 193.796C33.6396 193.796 33.4897 194.026 33.4897 194.31V194.487C33.4897 194.77 33.6396 195 33.8241 195H331.673C331.858 195 332.019 194.77 332.008 194.487V194.31C332.008 194.026 331.858 193.796 331.673 193.796" stroke="black"/>
</svg>
