<svg width="43" height="43" viewBox="0 0 43 43" fill="none" xmlns="http://www.w3.org/2000/svg">
<rect width="43" height="43" rx="21.5" fill="#263961"/>
<path d="M18.2772 20.4901H12.2129C11.5458 20.4901 11 19.9443 11 19.2772V13.2129C11 12.5458 11.5458 12 12.2129 12H18.2772C18.9443 12 19.4901 12.5458 19.4901 13.2129V19.2772C19.4901 19.9443 18.9443 20.4901 18.2772 20.4901Z" stroke="white" stroke-width="2" stroke-miterlimit="10"/>
<path d="M18.2772 32H12.2129C11.5458 32 11 31.4542 11 30.7871V24.7228C11 24.0557 11.5458 23.5099 12.2129 23.5099H18.2772C18.9443 23.5099 19.4901 24.0557 19.4901 24.7228V30.7871C19.4901 31.4542 18.9443 32 18.2772 32Z" stroke="white" stroke-width="2" stroke-miterlimit="10"/>
<path d="M29.7997 20.4901H23.7353C23.0683 20.4901 22.5225 19.9443 22.5225 19.2772V13.2129C22.5225 12.5458 23.0683 12 23.7353 12H29.7997C30.4668 12 31.0126 12.5458 31.0126 13.2129V19.2772C31.0126 19.9443 30.4668 20.4901 29.7997 20.4901Z" stroke="white" stroke-width="2" stroke-miterlimit="10"/>
<path d="M26.7675 32C24.4206 32 22.5225 30.1018 22.5225 27.7549C22.5225 25.408 24.4206 23.5099 26.7675 23.5099C29.1144 23.5099 31.0126 25.408 31.0126 27.7549C31.0126 30.1018 29.1144 32 26.7675 32Z" stroke="white" stroke-width="2" stroke-miterlimit="10"/>
</svg>
