<svg width="23" height="22" viewBox="0 0 23 22" fill="none" xmlns="http://www.w3.org/2000/svg">
<path d="M8.27625 9.4901H2.21189C1.54482 9.4901 0.999023 8.94431 0.999023 8.27723V2.21287C0.999023 1.54579 1.54482 1 2.21189 1H8.27625C8.94333 1 9.48912 1.54579 9.48912 2.21287V8.27723C9.48912 8.94431 8.94333 9.4901 8.27625 9.4901Z" stroke="#575757" stroke-width="2" stroke-miterlimit="10"/>
<path d="M8.27625 21H2.21189C1.54482 21 0.999023 20.4542 0.999023 19.7871V13.7228C0.999023 13.0557 1.54482 12.5099 2.21189 12.5099H8.27625C8.94333 12.5099 9.48912 13.0557 9.48912 13.7228V19.7871C9.48912 20.4542 8.94333 21 8.27625 21Z" stroke="#575757" stroke-width="2" stroke-miterlimit="10"/>
<path d="M19.7987 9.4901H13.7344C13.0673 9.4901 12.5215 8.94431 12.5215 8.27723V2.21287C12.5215 1.54579 13.0673 1 13.7344 1H19.7987C20.4658 1 21.0116 1.54579 21.0116 2.21287V8.27723C21.0116 8.94431 20.4658 9.4901 19.7987 9.4901Z" stroke="#575757" stroke-width="2" stroke-miterlimit="10"/>
<path d="M16.7665 21C14.4196 21 12.5215 19.1018 12.5215 16.7549C12.5215 14.408 14.4196 12.5099 16.7665 12.5099C19.1134 12.5099 21.0116 14.408 21.0116 16.7549C21.0116 19.1018 19.1134 21 16.7665 21Z" stroke="#575757" stroke-width="2" stroke-miterlimit="10"/>
</svg>
