<svg width="43" height="43" viewBox="0 0 43 43" fill="none" xmlns="http://www.w3.org/2000/svg">
<rect width="43" height="43" rx="21.5" fill="#263961"/>
<path d="M29.1364 26.2942L27.7374 25.6321L27.7523 20.2649C27.7523 17.6062 26.0844 15.3358 23.7394 14.4347V14.1907C23.7344 12.9808 22.7187 12 21.464 12C20.2094 12 19.1937 12.9808 19.1937 14.1907V14.4546C16.8835 15.3757 15.2405 17.6311 15.2405 20.2649L15.2255 25.6321L13.7966 26.2893C13.3186 26.4735 13 26.9365 13 27.4493V28.7339C13 29.421 13.5576 29.9786 14.2447 29.9786H18.9696C19.2136 31.1287 20.2392 32 21.464 32C22.6888 32 23.7145 31.1337 23.9584 29.9786H28.6833C29.3704 29.9786 29.9281 29.421 29.9281 28.7339V27.4493C29.9281 26.9365 29.6094 26.4785 29.1364 26.2942ZM21.464 13.4937C21.8076 13.4937 22.0963 13.6928 22.2009 13.9666C21.9968 13.9417 21.7926 13.9318 21.5935 13.9268C21.3097 13.9268 21.0209 13.9368 20.7321 13.9666C20.8317 13.6928 21.1205 13.4937 21.464 13.4937ZM21.464 30.5063C21.0757 30.5063 20.7371 30.2923 20.5529 29.9786H22.3752C22.1909 30.2923 21.8524 30.5063 21.464 30.5063ZM28.4344 28.4849H14.4937V27.6136L15.9226 26.9515C16.4005 26.7672 16.7192 26.3092 16.7192 25.7914L16.7341 20.2649C16.7341 17.641 18.8701 15.5051 21.4939 15.5051C24.1178 15.5051 26.2537 17.641 26.2537 20.2649L26.2387 25.7914C26.2387 26.3092 26.5524 26.7672 27.0304 26.9564L28.4344 27.6136V28.4849Z" fill="white"/>
<path d="M20.9661 16.75C19.114 16.75 17.6104 18.2536 17.6104 20.1057C17.6104 20.519 17.9439 20.8526 18.3572 20.8526C18.7704 20.8526 19.104 20.519 19.104 20.1057C19.104 19.0801 19.9404 18.2437 20.9661 18.2437C21.3793 18.2437 21.7129 17.9101 21.7129 17.4968C21.7129 17.0836 21.3793 16.75 20.9661 16.75Z" fill="white"/>
</svg>
