<svg width="17" height="20" viewBox="0 0 17 20" fill="none" xmlns="http://www.w3.org/2000/svg">
<path d="M16.1481 14.2942L14.7491 13.6321L14.764 8.26487C14.764 5.60617 13.0961 3.33582 10.7511 2.43465V2.19069C10.7461 0.980832 9.73042 0 8.47575 0C7.22108 0 6.2054 0.980832 6.2054 2.19069V2.45457C3.89521 3.37565 2.2522 5.63107 2.2522 8.26487L2.23726 13.6321L0.808333 14.2893C0.330365 14.4735 0.0117188 14.9365 0.0117188 15.4493V16.7339C0.0117188 17.421 0.569349 17.9786 1.25643 17.9786H5.98135C6.22531 19.1287 7.25095 20 8.47575 20C9.70054 20 10.7262 19.1337 10.9701 17.9786H15.6951C16.3821 17.9786 16.9398 17.421 16.9398 16.7339V15.4493C16.9398 14.9365 16.6211 14.4785 16.1481 14.2942ZM8.47575 1.49365C8.81929 1.49365 9.10806 1.69281 9.21262 1.96664C9.00848 1.94175 8.80435 1.93179 8.6052 1.92681C8.3214 1.92681 8.03263 1.93677 7.74386 1.96664C7.84343 1.69281 8.13221 1.49365 8.47575 1.49365ZM8.47575 18.5063C8.0874 18.5063 7.74884 18.2923 7.56462 17.9786H9.38688C9.20266 18.2923 8.8641 18.5063 8.47575 18.5063ZM15.4461 16.4849H1.50537V15.6136L2.9343 14.9515C3.41227 14.7672 3.73091 14.3092 3.73091 13.7914L3.74585 8.26487C3.74585 5.64103 5.88177 3.5051 8.50562 3.5051C11.1295 3.5051 13.2654 5.64103 13.2654 8.26487L13.2505 13.7914C13.2505 14.3092 13.5641 14.7672 14.0421 14.9564L15.4461 15.6136V16.4849Z" fill="#575757"/>
<path d="M7.97781 4.75C6.12568 4.75 4.62207 6.25361 4.62207 8.10574C4.62207 8.51898 4.95565 8.85256 5.3689 8.85256C5.78214 8.85256 6.11572 8.51898 6.11572 8.10574C6.11572 7.0801 6.95217 6.24365 7.97781 6.24365C8.39105 6.24365 8.72463 5.91007 8.72463 5.49683C8.72463 5.08358 8.39105 4.75 7.97781 4.75Z" fill="#575757"/>
</svg>
