<svg width="43" height="43" viewBox="0 0 43 43" fill="none" xmlns="http://www.w3.org/2000/svg">
<rect width="43" height="43" rx="21.5" fill="#263961"/>
<path d="M27.5 31C27.5 31 29 31 29 29.5C29 28 27.5 23.5 21.5 23.5C15.5 23.5 14 28 14 29.5C14 31 15.5 31 15.5 31H27.5ZM15.533 29.5C15.5219 29.4985 15.5109 29.4965 15.5 29.494C15.5015 29.098 15.7505 27.949 16.64 26.914C17.468 25.9435 18.923 25 21.5 25C24.0755 25 25.5305 25.945 26.36 26.914C27.2495 27.949 27.497 29.0995 27.5 29.494L27.488 29.497C27.481 29.4982 27.474 29.4992 27.467 29.5H15.533ZM21.5 20.5C22.2956 20.5 23.0587 20.1839 23.6213 19.6213C24.1839 19.0587 24.5 18.2956 24.5 17.5C24.5 16.7044 24.1839 15.9413 23.6213 15.3787C23.0587 14.8161 22.2956 14.5 21.5 14.5C20.7043 14.5 19.9413 14.8161 19.3787 15.3787C18.8161 15.9413 18.5 16.7044 18.5 17.5C18.5 18.2956 18.8161 19.0587 19.3787 19.6213C19.9413 20.1839 20.7043 20.5 21.5 20.5ZM26 17.5C26 18.0909 25.8836 18.6761 25.6575 19.2221C25.4313 19.768 25.0998 20.2641 24.682 20.682C24.2641 21.0998 23.768 21.4313 23.2221 21.6575C22.6761 21.8836 22.0909 22 21.5 22C20.9091 22 20.3239 21.8836 19.7779 21.6575C19.232 21.4313 18.7359 21.0998 18.318 20.682C17.9002 20.2641 17.5687 19.768 17.3425 19.2221C17.1164 18.6761 17 18.0909 17 17.5C17 16.3065 17.4741 15.1619 18.318 14.318C19.1619 13.4741 20.3065 13 21.5 13C22.6935 13 23.8381 13.4741 24.682 14.318C25.5259 15.1619 26 16.3065 26 17.5Z" fill="white"/>
</svg>
