<svg width="15" height="18" viewBox="0 0 15 18" fill="none" xmlns="http://www.w3.org/2000/svg">
<path d="M13.5 18C13.5 18 15 18 15 16.5C15 15 13.5 10.5 7.5 10.5C1.5 10.5 0 15 0 16.5C0 18 1.5 18 1.5 18H13.5ZM1.533 16.5C1.52192 16.4985 1.51091 16.4965 1.5 16.494C1.5015 16.098 1.7505 14.949 2.64 13.914C3.468 12.9435 4.923 12 7.5 12C10.0755 12 11.5305 12.945 12.36 13.914C13.2495 14.949 13.497 16.0995 13.5 16.494L13.488 16.497C13.481 16.4982 13.474 16.4992 13.467 16.5H1.533ZM7.5 7.5C8.29565 7.5 9.05871 7.18393 9.62132 6.62132C10.1839 6.05871 10.5 5.29565 10.5 4.5C10.5 3.70435 10.1839 2.94129 9.62132 2.37868C9.05871 1.81607 8.29565 1.5 7.5 1.5C6.70435 1.5 5.94129 1.81607 5.37868 2.37868C4.81607 2.94129 4.5 3.70435 4.5 4.5C4.5 5.29565 4.81607 6.05871 5.37868 6.62132C5.94129 7.18393 6.70435 7.5 7.5 7.5ZM12 4.5C12 5.09095 11.8836 5.67611 11.6575 6.22208C11.4313 6.76804 11.0998 7.26412 10.682 7.68198C10.2641 8.09984 9.76804 8.43131 9.22207 8.65746C8.67611 8.88361 8.09095 9 7.5 9C6.90905 9 6.32389 8.88361 5.77792 8.65746C5.23196 8.43131 4.73588 8.09984 4.31802 7.68198C3.90015 7.26412 3.56869 6.76804 3.34254 6.22208C3.11639 5.67611 3 5.09095 3 4.5C3 3.30653 3.4741 2.16193 4.31802 1.31802C5.16193 0.474106 6.30652 0 7.5 0C8.69347 0 9.83807 0.474106 10.682 1.31802C11.5259 2.16193 12 3.30653 12 4.5Z" fill="#575757"/>
</svg>
